<svg xmlns="http://www.w3.org/2000/svg" version="1.1" xmlns:xlink="http://www.w3.org/1999/xlink" xmlns:svgjs="http://svgjs.dev/svgjs" viewBox="0 0 800 800"><defs><linearGradient x1="50%" y1="0%" x2="50%" y2="100%" id="ccchaos-grad"><stop stop-color="hsl(162, 100%, 58%)" stop-opacity="1" offset="0%"></stop><stop stop-color="hsl(270, 73%, 53%)" stop-opacity="1" offset="100%"></stop></linearGradient></defs><g stroke-width="2" stroke="url(#ccchaos-grad)" fill="none" stroke-linecap="round"><path d="M378.95 102.69C388.32 104.75 397.66 107.68 406.94 111.34 416.23 115.19 425.49 119.54 434.69 124.25 443.94 128.82 453.17 133.56 462.39 138.37 471.68 142.78 480.99 147.17 490.33 151.48 499.78 155.3 509.3 159.06 518.88 162.75 528.61 166 538.43 169.28 548.32 172.63 558.36 175.67 568.47 178.9 578.61 182.37 588.85 185.71 599.07 189.41 609.19 193.5 619.3 197.6 629.2 202.17 638.78 207.21 648.16 212.37 657.07 218.04 665.36 224.19 673.22 230.5 680.29 237.3 686.43 244.53 691.93 251.91 696.35 259.7 699.59 267.84 702.06 276.11 703.3 284.68 703.28 293.5 702.53 302.41 700.6 311.52 697.55 320.78 694.04 330.08 689.64 339.5 684.49 348.99 679.33 358.49 673.76 368.03 667.96 377.57 662.67 387.11 657.59 396.42 652.88 405.48 649.02 414.54 645.65 423.37 642.8 431.97 640.89 440.61 639.45 449.05 638.43 457.33 638.19 465.69 638.19 473.95 638.3 482.14 638.91 490.51 639.4 498.9 639.65 507.34 640.06 516.06 640.02 524.93 639.44 533.98 638.75 543.38 637.37 553.02 635.27 562.92 632.88 573.15 629.71 583.62 625.75 594.26 621.46 605.11 616.4 616.01 610.61 626.81 604.52 637.54 597.75 647.92 590.4 657.76 582.79 667.1 574.67 675.58 566.11 682.98 557.39 689.46 548.3 694.57 538.91 698.17 529.44 700.61 519.72 701.44 509.83 700.64 499.9 698.82 489.84 695.59 479.68 691.09 469.52 686.14 459.28 680.43 449.01 674.25 438.75 668.48 428.46 662.87 418.16 657.7 407.85 653.77 397.78 650.8 387.95 648.87 378.1 648.42 368.47 648.94 359.06 650.29 349.63 652.79 340.39 655.72 331.36 658.83 322.28 662.43 313.38 665.71 304.67 668.43 295.88 670.94 287.27 672.49 278.82 672.94 270.29 672.72 261.92 671.21 253.72 668.42 245.44 664.79 237.32 659.91 229.38 653.87 221.37 647.1 213.55 639.34 205.96 630.75 198.32 621.65 190.93 611.94 183.82 601.76 176.71 591.33 169.91 580.62 163.47 569.74 157.09 558.81 151.11 547.82 145.56 536.87 140.13 525.97 135.18 515.15 130.74 504.44 126.46 493.83 122.72 483.33 119.55 472.97 116.58 462.69 114.18 452.52 112.4 442.47 110.8 432.46 109.81 422.55 109.44 412.73 109.22 402.94 109.6 393.21 110.6 383.58 111.69 373.95 113.33 364.63 115.46 355.63 117.62 346.63 120.22 337.95 123.24 329.6 126.2 321.25 129.53 313.25 133.19 305.6 136.72 297.96 140.56 290.67 144.67 283.76 148.61 276.83 152.8 270.25 157.23 264.03 161.47 257.75 165.94 251.78 170.64 246.12 175.16 240.32 179.91 234.76 184.9 229.41 189.74 223.82 194.83 218.37 200.18 213 205.43 207.32 210.96 201.65 216.76 195.98 222.51 189.93 228.56 183.83 234.9 177.7 241.22 171.2 247.86 164.69 254.79 158.22 261.72 151.51 268.96 144.93 276.49 138.6 284.03 132.24 291.85 126.29 299.94 120.87 308.03 115.69 316.38 111.23 324.96 107.6 333.55 104.46 342.35 102.29 351.36 101.15 360.36 100.61 369.56 101.12 378.94 102.69" stroke-dasharray="7 9" transform="rotate(0, 400, 400)" opacity="1.00"></path><path d="M380.79 113.36C389.84 115.4 398.89 118.26 407.92 121.83 416.96 125.59 426 129.85 435.02 134.48 444.07 138.99 453.15 143.69 462.22 148.49 471.37 152.94 480.56 157.38 489.78 161.77 499.11 165.7 508.5 169.57 517.94 173.38 527.51 176.76 537.14 180.15 546.82 183.57 556.61 186.68 566.43 189.93 576.23 193.37 586.09 196.64 595.87 200.2 605.5 204.09 615.07 207.95 624.39 212.21 633.33 216.89 642.06 221.63 650.27 226.84 657.86 232.49 665.02 238.25 671.4 244.47 676.88 251.11 681.75 257.87 685.61 265.03 688.35 272.54 690.41 280.15 691.33 288.09 691.08 296.29 690.2 304.57 688.24 313.08 685.26 321.77 681.89 330.5 677.71 339.38 672.84 348.37 667.97 357.38 662.72 366.47 657.24 375.61 652.22 384.76 647.37 393.74 642.82 402.54 639.04 411.35 635.67 419.99 632.76 428.48 630.7 437.01 629.05 445.41 627.78 453.72 627.23 462.11 626.91 470.47 626.71 478.82 626.99 487.32 627.19 495.9 627.21 504.56 627.44 513.46 627.28 522.52 626.66 531.76 626.01 541.28 624.75 551.01 622.85 560.93 620.74 571.1 617.93 581.42 614.41 591.82 610.6 602.32 606.09 612.76 600.89 623 595.43 633.07 589.32 642.71 582.64 651.73 575.72 660.21 568.3 667.8 560.41 674.31 552.38 679.94 543.95 684.26 535.2 687.14 526.36 688.99 517.24 689.36 507.92 688.25 498.55 686.25 489.01 682.99 479.35 678.6 469.67 673.86 459.88 668.45 450.02 662.62 440.17 657.2 430.26 651.92 420.3 647.03 410.35 643.27 400.59 640.36 391.03 638.38 381.47 637.75 372.09 637.99 362.91 638.99 353.7 641.08 344.67 643.59 335.82 646.31 326.93 649.54 318.2 652.55 309.65 655.11 301.03 657.57 292.56 659.23 284.26 659.94 275.89 660.11 267.66 659.15 259.61 657.03 251.48 654.18 243.51 650.16 235.73 645.06 227.9 639.26 220.26 632.5 212.84 624.9 205.39 616.79 198.2 608.01 191.28 598.71 184.38 589.11 177.79 579.16 171.56 568.96 165.4 558.64 159.62 548.2 154.28 537.72 149.06 527.24 144.3 516.78 140.05 506.39 135.95 496.05 132.39 485.8 129.38 475.67 126.55 465.6 124.3 455.63 122.64 445.8 121.15 436 120.26 426.31 119.97 416.74 119.83 407.18 120.28 397.73 121.32 388.41 122.45 379.08 124.11 370.08 126.26 361.42 128.42 352.75 131.02 344.42 134.02 336.43 136.96 328.43 140.25 320.76 143.87 313.45 147.37 306.12 151.15 299.13 155.2 292.48 159.09 285.8 163.22 279.43 167.57 273.38 171.75 267.24 176.14 261.37 180.75 255.75 185.18 249.98 189.84 244.39 194.7 238.97 199.43 233.31 204.38 227.74 209.58 222.24 214.66 216.42 220 210.61 225.61 204.78 231.13 198.61 236.94 192.4 243.03 186.18 249.08 179.64 255.42 173.12 262.04 166.67 268.65 160.03 275.55 153.57 282.72 147.38 289.89 141.21 297.35 135.47 305.06 130.26 312.77 125.33 320.73 121.09 328.94 117.67 337.14 114.73 345.57 112.72 354.22 111.7 362.86 111.25 371.72 111.8 380.78 113.36" stroke-dasharray="2 6" transform="rotate(4.04, 400, 400)" opacity="0.96"></path><path d="M383.29 124.04C392.04 126.03 400.81 128.83 409.58 132.31 418.37 135.97 427.18 140.13 435.99 144.66 444.85 149.11 453.73 153.76 462.64 158.53 471.61 162.99 480.63 167.47 489.69 171.91 498.83 175.94 508.04 179.92 517.28 183.85 526.62 187.36 536 190.86 545.4 194.39 554.87 197.58 564.33 200.88 573.73 204.33 583.14 207.58 592.43 211.06 601.52 214.82 610.51 218.5 619.21 222.52 627.51 226.92 635.56 231.32 643.09 236.14 649.99 241.36 656.47 246.65 662.18 252.36 667.03 258.47 671.33 264.67 674.66 271.26 676.96 278.19 678.64 285.21 679.27 292.55 678.83 300.18 677.85 307.86 675.88 315.8 672.99 323.95 669.77 332.13 665.8 340.5 661.21 349.02 656.64 357.55 651.7 366.22 646.52 374.99 641.77 383.76 637.14 392.43 632.77 400.99 629.07 409.55 625.73 418.03 622.77 426.4 620.58 434.82 618.75 443.19 617.25 451.5 616.42 459.91 615.8 468.33 615.3 476.78 615.28 485.38 615.2 494.07 614.98 502.86 615 511.86 614.7 521 614.01 530.31 613.33 539.83 612.14 549.51 610.39 559.31 608.49 569.29 605.97 579.33 602.8 589.35 599.42 599.39 595.38 609.27 590.71 618.86 585.8 628.21 580.29 637.06 574.23 645.23 567.96 652.85 561.18 659.57 553.94 665.21 546.56 670.03 538.78 673.62 530.66 675.86 522.44 677.17 513.93 677.14 505.17 675.77 496.37 673.64 487.37 670.38 478.2 666.13 469.02 661.61 459.7 656.49 450.28 651.02 440.85 645.94 431.33 640.98 421.75 636.35 412.16 632.77 402.73 629.93 393.47 627.9 384.2 627.11 375.09 627.1 366.15 627.78 357.19 629.48 348.38 631.58 339.74 633.91 331.05 636.77 322.52 639.48 314.13 641.85 305.7 644.21 297.41 645.9 289.27 646.79 281.08 647.27 273.02 646.74 265.13 645.19 257.19 643.02 249.4 639.78 241.8 635.52 234.16 630.65 226.72 624.83 219.5 618.19 212.27 611.05 205.29 603.22 198.58 594.83 191.92 586.11 185.56 576.98 179.55 567.53 173.62 557.93 168.07 548.13 162.94 538.22 157.95 528.26 153.4 518.27 149.34 508.3 145.44 498.34 142.05 488.44 139.21 478.63 136.54 468.85 134.43 459.16 132.89 449.6 131.52 440.06 130.73 430.63 130.52 421.34 130.46 412.05 130.96 402.89 132.04 393.86 133.21 384.83 134.89 376.14 137.03 367.79 139.19 359.43 141.78 351.4 144.75 343.72 147.66 336.01 150.92 328.63 154.49 321.59 157.95 314.51 161.68 307.74 165.67 301.29 169.5 294.78 173.57 288.56 177.85 282.61 181.97 276.55 186.29 270.71 190.81 265.09 195.17 259.3 199.73 253.66 204.49 248.14 209.11 242.38 213.95 236.69 219 231.04 223.94 225.1 229.12 219.15 234.54 213.2 239.88 206.93 245.47 200.65 251.33 194.37 257.13 187.83 263.21 181.33 269.55 174.95 275.86 168.42 282.46 162.11 289.31 156.09 296.15 150.13 303.26 144.62 310.63 139.65 317.99 134.96 325.6 130.96 333.46 127.76 341.3 125.01 349.39 123.16 357.7 122.26 366 121.89 374.53 122.48 383.28 124.03" stroke-dasharray="6 2" transform="rotate(8.08, 400, 400)" opacity="0.92"></path><path d="M386.38 134.71C394.83 136.67 403.31 139.39 411.83 142.76 420.35 146.33 428.92 150.38 437.51 154.8 446.13 159.16 454.8 163.75 463.51 168.47 472.26 172.93 481.07 177.42 489.91 181.91 498.82 186.02 507.77 190.1 516.75 194.13 525.8 197.77 534.87 201.39 543.92 205.03 553.01 208.33 562.05 211.71 570.99 215.2 579.91 218.47 588.66 221.93 597.18 225.61 605.57 229.17 613.63 233.03 621.27 237.2 628.66 241.35 635.51 245.85 641.73 250.72 647.56 255.62 652.65 260.9 656.91 266.56 660.66 272.27 663.51 278.34 665.4 284.76 666.75 291.24 667.14 298.04 666.55 305.14 665.49 312.28 663.53 319.69 660.74 327.33 657.67 335 653.92 342.89 649.6 350.97 645.31 359.05 640.67 367.31 635.81 375.72 631.31 384.14 626.91 392.51 622.71 400.83 619.11 409.17 615.8 417.46 612.82 425.72 610.53 434.02 608.54 442.32 606.84 450.62 605.77 459 604.87 467.43 604.1 475.92 603.77 484.53 603.42 493.25 602.97 502.08 602.76 511.06 602.29 520.18 601.5 529.42 600.77 538.82 599.6 548.32 597.94 557.89 596.19 567.54 593.88 577.18 591.01 586.72 587.97 596.19 584.33 605.43 580.11 614.31 575.71 622.88 570.73 630.91 565.22 638.23 559.54 644.99 553.37 650.86 546.74 655.69 539.98 659.75 532.81 662.66 525.3 664.32 517.69 665.17 509.76 664.79 501.58 663.21 493.34 660.99 484.87 657.77 476.22 653.68 467.54 649.38 458.7 644.57 449.72 639.43 440.74 634.69 431.64 630.04 422.44 625.68 413.24 622.26 404.15 619.49 395.21 617.44 386.26 616.51 377.44 616.28 368.76 616.66 360.07 617.98 351.51 619.7 343.08 621.64 334.63 624.13 326.31 626.53 318.12 628.67 309.9 630.88 301.81 632.54 293.85 633.53 285.86 634.21 278.01 634.04 270.31 632.95 262.57 631.36 254.99 628.8 247.6 625.3 240.18 621.26 232.96 616.33 225.96 610.6 218.97 604.4 212.22 597.5 205.76 590.02 199.34 582.2 193.22 573.92 187.45 565.29 181.77 556.45 176.46 547.37 171.57 538.12 166.8 528.78 162.47 519.35 158.62 509.88 154.93 500.4 151.72 490.93 149.05 481.52 146.55 472.11 144.58 462.78 143.16 453.55 141.91 444.33 141.22 435.21 141.08 426.22 141.09 417.24 141.65 408.37 142.76 399.65 143.96 390.92 145.64 382.52 147.78 374.46 149.94 366.38 152.5 358.63 155.43 351.2 158.32 343.75 161.54 336.61 165.05 329.77 168.46 322.89 172.14 316.3 176.06 309.99 179.85 303.6 183.86 297.46 188.07 291.56 192.12 285.53 196.37 279.7 200.81 274.03 205.1 268.19 209.58 262.47 214.24 256.84 218.77 250.98 223.5 245.17 228.43 239.39 233.24 233.33 238.28 227.28 243.53 221.22 248.7 214.9 254.11 208.57 259.76 202.28 265.34 195.77 271.19 189.35 277.28 183.06 283.33 176.69 289.64 170.55 296.21 164.74 302.75 159.01 309.55 153.74 316.61 149.02 323.64 144.59 330.93 140.84 338.45 137.85 345.97 135.31 353.73 133.61 361.72 132.83 369.7 132.54 377.92 133.17 386.37 134.71" stroke-dasharray="9 5" transform="rotate(12.12, 400, 400)" opacity="0.89"></path><path d="M389.93 145.38C398.09 147.3 406.29 149.94 414.53 153.2 422.79 156.66 431.1 160.59 439.44 164.89 447.81 169.16 456.23 173.66 464.69 178.32 473.19 182.75 481.73 187.25 490.31 191.76 498.93 195.93 507.59 200.09 516.24 204.21 524.94 207.97 533.64 211.71 542.28 215.45 550.94 218.88 559.51 222.35 567.94 225.91 576.33 229.23 584.51 232.71 592.43 236.36 600.2 239.87 607.62 243.62 614.61 247.64 621.33 251.59 627.53 255.86 633.1 260.45 638.3 265.04 642.8 269.97 646.51 275.24 649.76 280.53 652.18 286.18 653.71 292.15 654.77 298.15 654.94 304.47 654.23 311.1 653.12 317.74 651.19 324.67 648.51 331.86 645.6 339.06 642.08 346.5 638.02 354.17 634.01 361.83 629.66 369.71 625.09 377.78 620.85 385.86 616.67 393.95 612.64 402.03 609.15 410.12 605.9 418.23 602.91 426.35 600.54 434.51 598.43 442.7 596.56 450.93 595.26 459.23 594.12 467.61 593.09 476.06 592.49 484.61 591.87 493.27 591.18 502.02 590.75 510.89 590.1 519.86 589.19 528.91 588.37 538.07 587.17 547.27 585.56 556.46 583.9 565.68 581.76 574.82 579.11 583.78 576.35 592.61 573.05 601.14 569.22 609.25 565.24 617.03 560.73 624.22 555.72 630.7 550.57 636.63 544.94 641.68 538.88 645.75 532.7 649.12 526.11 651.4 519.17 652.56 512.14 652.99 504.79 652.33 497.16 650.59 489.48 648.33 481.54 645.18 473.4 641.25 465.23 637.19 456.87 632.68 448.35 627.88 439.82 623.46 431.15 619.11 422.35 615.01 413.55 611.75 404.83 609.07 396.23 607.01 387.62 605.95 379.11 605.51 370.71 605.62 362.31 606.6 354.01 607.95 345.84 609.52 337.64 611.64 329.56 613.71 321.6 615.59 313.61 617.62 305.74 619.19 298.01 620.21 290.25 621.02 282.61 621.1 275.13 620.39 267.63 619.27 260.29 617.29 253.13 614.46 245.96 611.16 238.98 607.03 232.23 602.14 225.5 596.83 219.01 590.82 212.8 584.23 206.65 577.31 200.8 569.9 195.29 562.09 189.87 554.07 184.81 545.75 180.16 537.21 175.64 528.56 171.54 519.76 167.9 510.88 164.42 501.95 161.41 492.99 158.9 484.04 156.57 475.09 154.74 466.17 153.45 457.32 152.32 448.49 151.72 439.72 151.66 431.07 151.74 422.42 152.34 413.87 153.47 405.45 154.7 397.03 156.39 388.92 158.51 381.13 160.65 373.32 163.19 365.82 166.07 358.61 168.92 351.38 172.09 344.43 175.54 337.76 178.9 331.04 182.53 324.57 186.38 318.35 190.11 312.04 194.05 305.95 198.19 300.05 202.18 294.03 206.37 288.17 210.73 282.44 214.95 276.54 219.35 270.73 223.93 264.99 228.37 259.04 233 253.12 237.81 247.23 242.51 241.09 247.42 234.96 252.53 228.85 257.55 222.5 262.79 216.18 268.26 209.92 273.65 203.49 279.28 197.18 285.15 191.03 290.96 184.84 297.03 178.92 303.33 173.33 309.6 167.87 316.13 162.86 322.89 158.4 329.63 154.23 336.61 150.73 343.84 147.96 351.04 145.62 358.49 144.08 366.18 143.41 373.85 143.2 381.77 143.86 389.92 145.38" stroke-dasharray="3 3" transform="rotate(16.16, 400, 400)" opacity="0.85"></path><path d="M393.84 156.06C401.69 157.92 409.61 160.48 417.57 163.63 425.54 166.97 433.57 170.77 441.64 174.94 449.73 179.1 457.87 183.51 466.04 188.08 474.24 192.47 482.48 196.95 490.74 201.45 499.03 205.67 507.33 209.88 515.61 214.08 523.92 217.94 532.19 221.8 540.38 225.64 548.55 229.19 556.62 232.77 564.51 236.41 572.33 239.82 579.93 243.34 587.23 247 594.38 250.5 601.16 254.2 607.49 258.12 613.58 261.95 619.13 266.06 624.09 270.44 630.68 277.11 639.67 291.99 641.9 300.22 642.69 305.82 642.69 311.73 641.89 317.94 640.74 324.15 638.87 330.65 636.3 337.42 633.56 344.2 630.25 351.23 626.46 358.51 622.72 365.79 618.66 373.31 614.37 381.05 610.38 388.8 606.43 396.6 602.57 404.44 599.2 412.28 596.01 420.19 593.04 428.13 590.61 436.11 588.4 444.15 586.39 452.25 584.89 460.41 583.53 468.66 582.27 476.98 581.42 485.38 580.55 493.87 579.64 502.44 578.97 511.09 578.15 519.8 577.1 528.55 576.16 537.35 574.91 546.14 573.3 554.87 571.69 563.55 569.66 572.09 567.18 580.4 564.63 588.53 561.6 596.31 558.09 603.63 554.47 610.6 550.37 616.97 545.8 622.62 541.12 627.75 535.99 632.04 530.44 635.4 524.78 638.13 518.74 639.87 512.34 640.57 505.86 640.67 499.05 639.77 491.96 637.92 484.81 635.65 477.4 632.59 469.76 628.86 462.1 625.04 454.23 620.82 446.17 616.35 438.1 612.24 429.87 608.19 421.49 604.33 413.1 601.25 404.77 598.64 396.52 596.58 388.27 595.43 380.09 594.8 372.01 594.66 363.92 595.33 355.92 596.32 348.01 597.54 340.1 599.29 332.28 601.03 324.58 602.64 316.86 604.44 309.24 605.88 301.75 606.87 294.25 607.74 286.87 607.98 279.64 607.55 272.41 606.81 265.32 605.3 258.42 603.04 251.53 600.39 244.82 596.98 238.34 592.85 231.89 588.35 225.69 583.19 219.75 577.44 213.89 571.39 208.31 564.83 203.07 557.85 197.93 550.66 193.14 543.12 188.74 535.33 184.47 527.41 180.61 519.29 177.19 511.04 173.92 502.73 171.11 494.34 168.78 485.92 166.61 477.48 164.94 469.03 163.77 460.62 162.76 452.21 162.25 443.84 162.26 435.55 162.4 427.27 163.04 419.07 164.19 410.96 165.43 402.86 167.12 395.04 169.21 387.5 171.34 379.95 173.83 372.68 176.67 365.67 179.47 358.64 182.58 351.85 185.97 345.32 189.27 338.72 192.83 332.35 196.61 326.19 200.28 319.94 204.16 313.87 208.22 307.96 212.15 301.93 216.27 296.02 220.55 290.23 224.7 284.27 229.03 278.38 233.52 272.55 237.88 266.52 242.42 260.52 247.13 254.55 251.73 248.37 256.52 242.21 261.5 236.08 266.38 229.76 271.48 223.49 276.77 217.31 281.99 211.01 287.44 204.84 293.1 198.88 298.71 192.91 304.55 187.22 310.61 181.89 316.64 176.7 322.9 171.97 329.4 167.79 335.86 163.89 342.57 160.64 349.51 158.09 356.42 155.94 363.58 154.57 370.97 154 378.35 153.87 385.97 154.56 393.83 156.05" stroke-dasharray="3 5" transform="rotate(20.200000000000003, 400, 400)" opacity="0.81"></path><path d="M397.96 166.73C405.51 168.55 413.13 171.01 420.79 174.04 428.47 177.26 436.19 180.93 443.96 184.96 451.74 188.99 459.57 193.28 467.41 197.75 475.28 202.08 483.18 206.51 491.07 210.99 498.98 215.22 506.89 219.47 514.75 223.72 522.61 227.67 530.42 231.62 538.11 235.56 545.78 239.22 553.3 242.91 560.63 246.64 567.87 250.14 574.86 253.73 581.55 257.43 588.07 260.96 594.22 264.65 599.92 268.53 605.39 272.29 610.34 276.28 614.72 280.52 620.5 286.91 628.19 301.04 629.97 308.81 630.55 314.07 630.4 319.64 629.53 325.48 628.38 331.32 626.56 337.45 624.13 343.85 621.55 350.25 618.46 356.91 614.93 363.83 611.44 370.75 607.66 377.93 603.65 385.36 599.91 392.78 596.17 400.29 592.5 407.87 589.26 415.45 586.14 423.12 583.2 430.85 580.74 438.6 578.45 446.44 576.33 454.35 574.67 462.3 573.12 470.34 571.66 478.45 570.57 486.6 569.48 494.84 568.34 503.12 567.47 511.44 566.45 519.79 565.25 528.13 564.19 536.47 562.85 544.76 561.22 552.92 559.62 561 557.65 568.88 555.3 576.48 552.9 583.87 550.08 590.88 546.84 597.39 543.52 603.56 539.76 609.12 535.58 613.98 528.95 620.15 513.57 627.45 504.89 628.4 498.93 628.21 492.64 627.13 486.05 625.22 479.42 622.96 472.52 620.02 465.38 616.49 458.21 612.92 450.82 609 443.22 604.85 435.62 601.04 427.83 597.27 419.88 593.66 411.92 590.74 404 588.23 396.12 586.18 388.25 584.94 380.42 584.15 372.67 583.79 364.92 584.17 357.23 584.84 349.63 585.72 342.02 587.11 334.5 588.52 327.08 589.85 319.65 591.4 312.32 592.67 305.11 593.56 297.9 594.42 290.8 594.76 283.85 594.52 276.91 594.06 270.12 592.93 263.5 591.14 256.9 589.03 250.5 586.24 244.31 582.79 238.17 579.01 232.26 574.62 226.62 569.66 221.05 564.42 215.78 558.68 210.82 552.51 205.96 546.13 201.45 539.38 197.31 532.34 193.3 525.17 189.69 517.76 186.49 510.18 183.45 502.53 180.84 494.75 178.69 486.9 176.69 479.01 175.16 471.08 174.11 463.15 173.21 455.2 172.8 447.27 172.87 439.38 173.07 431.49 173.75 423.65 174.91 415.87 176.16 408.1 177.83 400.57 179.89 393.29 181.99 386 184.44 378.94 187.22 372.12 189.97 365.27 193.01 358.64 196.32 352.21 199.57 345.74 203.05 339.44 206.75 333.32 210.35 327.12 214.15 321.06 218.14 315.14 222 309.1 226.05 303.16 230.25 297.3 234.33 291.3 238.58 285.36 242.98 279.46 247.27 273.4 251.72 267.36 256.33 261.36 260.84 255.18 265.52 249.03 270.37 242.93 275.14 236.69 280.09 230.53 285.23 224.47 290.3 218.33 295.58 212.37 301.05 206.62 306.47 200.9 312.1 195.48 317.95 190.42 323.75 185.53 329.78 181.1 336.02 177.19 342.24 173.57 348.68 170.57 355.35 168.24 361.99 166.29 368.87 165.06 375.97 164.6 383.06 164.55 390.39 165.25 397.95 166.73" stroke-dasharray="7 9" transform="rotate(24.24, 400, 400)" opacity="0.77"></path><path d="M402.14 177.4C409.4 179.16 416.7 181.53 424.05 184.44 431.41 187.53 438.81 191.05 446.24 194.93 453.69 198.83 461.17 202.98 468.66 207.34 476.16 211.58 483.67 215.94 491.16 220.37 498.66 224.6 506.13 228.86 513.53 233.13 520.92 237.14 528.23 241.16 535.4 245.18 542.53 248.95 549.49 252.74 556.24 256.56 562.89 260.15 569.28 263.82 575.35 267.58 581.26 271.16 586.8 274.88 591.9 278.75 598.96 284.46 610.03 296.77 613.85 303.45 616.56 310.33 618.21 325.36 617.17 333.53 616.02 339.06 614.28 344.86 611.98 350.93 609.57 356.99 606.7 363.32 603.41 369.91 600.18 376.49 596.67 383.34 592.93 390.46 589.43 397.57 585.91 404.78 582.43 412.07 579.31 419.37 576.29 426.77 573.4 434.23 570.93 441.72 568.59 449.3 566.38 456.94 564.58 464.62 562.87 472.37 561.23 480.17 559.93 488.01 558.64 495.89 557.31 503.78 556.22 511.69 555.02 519.58 553.68 527.42 552.47 535.23 551.04 542.93 549.36 550.46 547.73 557.88 545.79 565.06 543.52 571.92 541.23 578.55 538.58 584.77 535.55 590.5 530.73 598.28 519.05 609.95 512.22 613.55 504.92 615.63 488.53 615.03 479.53 612.49 473.39 610.28 466.97 607.48 460.31 604.16 453.62 600.84 446.7 597.2 439.57 593.37 432.44 589.85 425.1 586.36 417.58 582.99 410.06 580.23 402.55 577.81 395.07 575.79 387.59 574.48 380.14 573.56 372.74 573 365.35 573.11 358.01 573.48 350.73 574.05 343.47 575.1 336.27 576.18 329.16 577.22 322.05 578.5 315.04 579.57 308.13 580.34 301.24 581.13 294.45 581.49 287.81 581.36 281.19 581.09 274.71 580.25 268.4 578.83 262.13 577.16 256.05 574.89 250.17 572.02 244.35 568.88 238.76 565.17 233.44 560.93 228.19 556.44 223.22 551.46 218.56 546.05 214 540.45 209.77 534.47 205.9 528.17 202.16 521.74 198.79 515.05 195.83 508.15 193 501.17 190.59 494.03 188.62 486.77 186.79 479.47 185.41 472.09 184.49 464.66 183.7 457.22 183.37 449.75 183.5 442.28 183.75 434.81 184.46 427.35 185.63 419.92 186.88 412.49 188.53 405.26 190.56 398.24 192.61 391.21 195.01 384.38 197.72 377.74 200.41 371.07 203.39 364.59 206.61 358.27 209.78 351.91 213.19 345.69 216.8 339.62 220.33 333.47 224.05 327.43 227.95 321.5 231.74 315.47 235.7 309.52 239.82 303.63 243.83 297.62 248 291.65 252.31 285.73 256.52 279.67 260.88 273.64 265.39 267.65 269.8 261.53 274.38 255.45 279.12 249.44 283.77 243.33 288.6 237.31 293.59 231.42 298.52 225.51 303.64 219.77 308.94 214.27 314.18 208.84 319.62 203.71 325.26 198.95 330.86 194.37 336.66 190.23 342.67 186.62 348.65 183.28 354.84 180.53 361.24 178.41 367.63 176.66 374.23 175.58 381.05 175.22 387.85 175.23 394.88 175.96 402.13 177.4" stroke-dasharray="11 4" transform="rotate(28.28, 400, 400)" opacity="0.73"></path><path d="M406.26 188.07C413.2 189.78 420.18 192.05 427.2 194.83 434.22 197.78 441.28 201.15 448.35 204.86 455.44 208.61 462.54 212.62 469.64 216.84 476.75 220.97 483.84 225.24 490.89 229.6 497.95 233.79 504.95 238.03 511.86 242.3 518.75 246.34 525.54 250.41 532.17 254.49 538.75 258.33 545.14 262.21 551.31 266.11 557.37 269.8 563.16 273.55 568.63 277.37 576.42 282.9 589.67 294.36 594.94 300.4 599.3 306.49 604.78 319.64 605.83 326.74 605.9 334.04 602.85 349.87 599.87 358.4 597.62 364.17 594.96 370.19 591.92 376.47 588.94 382.75 585.69 389.28 582.21 396.08 578.95 402.87 575.64 409.77 572.35 416.76 569.37 423.75 566.45 430.84 563.62 438 561.16 445.18 558.79 452.43 556.52 459.75 554.62 467.08 552.78 474.47 550.99 481.89 549.52 489.32 548.04 496.77 546.53 504.19 545.26 511.61 543.89 518.97 542.4 526.24 541.05 533.45 539.52 540.51 537.77 547.36 536.1 554.08 534.16 560.53 531.93 566.63 528.45 575.24 519.8 589.6 514.6 595.07 508.98 599.3 495.95 603.57 488.58 603.57 483.52 602.96 478.15 601.68 472.5 599.75 466.82 597.62 460.87 594.97 454.67 591.87 448.45 588.8 441.99 585.45 435.32 581.92 428.64 578.68 421.75 575.45 414.68 572.31 407.6 569.72 400.51 567.4 393.44 565.41 386.36 564.05 379.31 563.02 372.29 562.29 365.27 562.16 358.3 562.26 351.38 562.54 344.47 563.26 337.63 564.04 330.86 564.78 324.1 565.79 317.43 566.63 310.86 567.24 304.31 567.91 297.87 568.24 291.56 568.16 285.28 568 279.14 567.36 273.17 566.21 267.24 564.89 261.5 563.04 255.96 560.65 250.48 558.06 245.23 554.94 240.23 551.32 235.3 547.5 230.65 543.21 226.3 538.5 222.05 533.63 218.11 528.37 214.52 522.79 211.05 517.08 207.93 511.09 205.2 504.86 202.6 498.55 200.39 492.05 198.6 485.39 196.94 478.7 195.69 471.88 194.89 464.97 194.21 458.05 193.96 451.06 194.15 444.04 194.45 437.01 195.18 429.95 196.35 422.88 197.59 415.81 199.22 408.89 201.2 402.14 203.21 395.39 205.55 388.78 208.18 382.33 210.8 375.86 213.69 369.53 216.83 363.33 219.92 357.09 223.23 350.97 226.75 344.95 230.19 338.88 233.82 332.89 237.62 326.98 241.33 320.99 245.21 315.05 249.23 309.17 253.16 303.19 257.24 297.25 261.46 291.36 265.58 285.35 269.85 279.39 274.26 273.47 278.58 267.45 283.06 261.5 287.68 255.63 292.22 249.7 296.92 243.88 301.78 238.21 306.57 232.55 311.53 227.09 316.66 221.87 321.74 216.74 327.01 211.93 332.45 207.49 337.85 203.23 343.44 199.4 349.22 196.08 354.97 193.02 360.92 190.52 367.07 188.62 373.19 187.05 379.53 186.12 386.06 185.85 392.58 185.93 399.31 186.67 406.25 188.07" stroke-dasharray="7 7" transform="rotate(32.32, 400, 400)" opacity="0.70"></path><path d="M410.16 198.75C416.77 200.38 423.41 202.56 430.08 205.2 436.75 208.01 443.44 211.22 450.14 214.76 456.84 218.35 463.54 222.2 470.22 226.26 476.9 230.26 483.56 234.42 490.15 238.67 496.73 242.8 503.24 246.99 509.65 251.22 516.02 255.28 522.27 259.36 528.35 263.46 534.38 267.37 540.2 271.3 545.79 275.26 551.28 279.03 556.49 282.85 561.38 286.73 568.32 292.35 579.99 303.9 584.56 309.9 588.31 315.93 592.88 328.78 593.65 335.66 593.57 342.7 590.58 357.86 587.79 366.01 585.71 371.51 583.26 377.25 580.46 383.23 577.71 389.21 574.71 395.44 571.49 401.91 568.46 408.38 565.37 414.96 562.26 421.61 559.43 428.27 556.62 435.02 553.87 441.83 551.44 448.64 549.07 455.53 546.77 462.45 544.78 469.38 542.84 476.34 540.94 483.31 539.31 490.27 537.68 497.22 536.02 504.11 534.58 510.97 533.06 517.75 531.43 524.39 529.95 530.96 528.31 537.35 526.49 543.5 523.77 552.36 517.18 568.07 513.22 574.67 508.95 580.32 498.84 588.23 492.98 590.35 486.77 591.3 472.81 589.56 465.1 587.01 459.84 584.98 454.33 582.5 448.57 579.62 442.79 576.8 436.78 573.73 430.56 570.49 424.33 567.53 417.89 564.55 411.26 561.64 404.63 559.2 397.98 556.99 391.32 555.05 384.67 553.65 378.02 552.53 371.4 551.66 364.78 551.32 358.19 551.17 351.66 551.18 345.13 551.61 338.66 552.08 332.26 552.55 325.87 553.28 319.57 553.88 313.36 554.3 307.18 554.82 301.1 555.06 295.15 554.97 286.35 554.59 269.59 551.55 261.71 548.79 254.14 545.32 240.28 535.85 234.08 529.94 230.14 525.72 226.5 521.13 223.18 516.21 219.98 511.18 217.12 505.85 214.62 500.27 212.24 494.62 210.23 488.74 208.61 482.69 207.12 476.59 206.02 470.34 205.32 463.96 204.75 457.57 204.57 451.07 204.82 444.5 205.16 437.93 205.91 431.28 207.07 424.59 208.3 417.9 209.89 411.31 211.82 404.85 213.77 398.38 216.04 392.02 218.59 385.78 221.13 379.52 223.93 373.36 226.97 367.3 229.97 361.21 233.18 355.2 236.59 349.28 239.94 343.31 243.47 337.4 247.16 331.55 250.78 325.63 254.56 319.77 258.48 313.95 262.32 308.05 266.3 302.19 270.42 296.38 274.45 290.48 278.62 284.63 282.92 278.85 287.14 273 291.51 267.22 296.01 261.55 300.44 255.85 305.01 250.28 309.73 244.88 314.39 239.5 319.2 234.34 324.17 229.45 329.09 224.65 334.18 220.17 339.42 216.05 344.63 212.12 350.02 208.61 355.57 205.58 361.1 202.8 366.81 200.55 372.7 198.86 378.58 197.47 384.63 196.67 390.88 196.5 397.11 196.63 403.54 197.38 410.15 198.75" stroke-dasharray="8 10" transform="rotate(36.36, 400, 400)" opacity="0.66"></path><path d="M413.7 209.42C419.98 210.99 426.27 213.05 432.57 215.56 438.87 218.22 445.18 221.26 451.48 224.62 464.07 231.48 476.6 239.26 488.84 247.6 501.01 255.52 512.8 263.74 523.92 272.1 534.8 279.77 544.79 287.61 553.61 295.6 561.9 303 568.75 310.76 573.89 318.92 578.29 326.72 580.84 335.15 581.42 344.24 581.32 353.16 579.4 362.89 575.74 373.45 573.84 378.71 571.59 384.18 569.02 389.88 566.5 395.57 563.75 401.49 560.78 407.64 557.97 413.78 555.08 420.01 552.17 426.31 549.48 432.61 546.8 438.98 544.14 445.4 539.66 458.24 535.29 471.25 531.06 484.18 527.82 497.04 524.43 509.67 520.78 521.74 517.7 533.44 514 544.24 509.54 553.72 505.26 562.37 499.98 569.29 493.65 574.11 487.28 577.77 479.78 579.17 471.21 578.24 462.53 576.43 452.81 572.72 442.15 567.42 436.79 564.84 431.22 562.05 425.43 559.09 419.63 556.39 413.64 553.66 407.45 550.97 401.27 548.69 395.05 546.59 388.82 544.7 382.6 543.29 376.37 542.09 370.16 541.1 357.77 540.51 345.46 540.43 333.43 540.53 321.47 541.66 309.81 542.23 298.65 541.87 287.63 541.59 277.17 539.85 267.47 536.56 258.02 532.82 249.43 527.41 241.9 520.47 234.74 513.07 228.75 504.3 224.09 494.42 219.88 484.28 217.07 473.25 215.79 461.57 215.31 455.71 215.21 449.71 215.5 443.6 215.88 437.48 216.64 431.26 217.78 424.96 219 418.66 220.55 412.42 222.41 406.26 224.31 400.1 226.5 394.01 228.95 387.99 233.85 375.93 239.7 364.11 246.33 352.57 252.75 340.87 259.87 329.32 267.55 317.98 274.94 306.41 282.89 294.98 291.34 283.84 299.49 272.56 308.19 261.67 317.39 251.45 326.38 241.42 335.96 232.37 346.1 224.66 356.1 217.66 366.75 212.37 378.03 209.13 383.64 207.91 389.42 207.25 395.37 207.16 401.31 207.34 407.42 208.09 413.69 209.42" stroke-dasharray="1 7" transform="rotate(40.400000000000006, 400, 400)" opacity="0.62"></path><path d="M416.77 220.09C428.62 223.28 440.49 228.2 452.24 234.46 464 240.96 475.61 248.38 486.87 256.39 498.06 264.09 508.8 272.15 518.84 280.39 528.63 288.07 537.55 295.93 545.32 303.94 552.62 311.43 558.58 319.22 562.96 327.35 566.72 335.13 568.82 343.43 569.15 352.3 568.94 360.98 567.11 370.37 563.74 380.47 560.26 390.5 555.63 401.34 550.06 412.95 545.04 424.56 539.75 436.44 534.44 448.41 530.04 460.39 525.67 472.42 521.36 484.27 517.9 496.01 514.3 507.41 510.46 518.16 507.16 528.52 503.32 537.94 498.85 546.04 494.59 553.4 489.46 559.12 483.45 562.93 477.43 565.78 470.42 566.64 462.45 565.44 454.41 563.61 445.41 560.12 435.54 555.27 425.62 550.71 414.87 545.58 403.39 540.29 391.91 536.45 380.28 533.19 368.7 530.62 357.15 529.67 345.69 529.12 334.47 528.74 323.33 529.34 312.49 529.5 302.12 528.93 291.9 528.56 282.22 526.98 273.27 524.07 264.57 520.9 256.68 516.25 249.8 510.22 243.27 503.84 237.82 496.16 233.63 487.39 229.85 478.4 227.36 468.47 226.3 457.82 225.61 447.1 226.32 435.77 228.5 423.97 230.92 412.17 234.58 400.47 239.27 388.98 243.98 377.45 249.6 366.06 255.96 354.87 262.15 343.56 269.02 332.36 276.44 321.35 283.6 310.18 291.31 299.19 299.48 288.52 307.4 277.81 315.84 267.54 324.73 257.98 333.42 248.67 342.66 240.35 352.39 233.33 362.01 226.99 372.2 222.26 382.94 219.43 393.62 217.59 404.91 217.77 416.76 220.09" stroke-dasharray="1 9" transform="rotate(44.44, 400, 400)" opacity="0.58"></path><path d="M419.26 230.77C430.38 233.79 441.46 238.39 452.36 244.26 463.25 250.38 473.92 257.41 484.21 265.05 494.4 272.47 504.11 280.29 513.1 288.34 521.86 295.95 529.75 303.76 536.55 311.71 542.94 319.23 548.09 327.01 551.8 335.07 555 342.82 556.71 350.99 556.85 359.62 556.58 368.09 554.86 377.14 551.78 386.79 548.63 396.38 544.43 406.64 539.34 417.55 534.73 428.46 529.79 439.53 524.75 450.61 520.47 461.66 516.15 472.66 511.82 483.39 508.22 493.98 504.46 504.13 500.48 513.57 496.99 522.64 493.04 530.74 488.56 537.56 484.3 543.74 479.31 548.41 473.55 551.35 467.83 553.53 461.25 553.95 453.82 552.61 446.36 550.8 438.03 547.58 428.91 543.17 419.75 539.08 409.82 534.45 399.21 529.62 388.6 526.03 377.85 522.86 367.13 520.21 356.45 518.95 345.84 518 335.46 517.19 325.18 517.3 315.17 517.05 305.62 516.22 296.22 515.67 287.34 514.13 279.16 511.49 271.21 508.71 264.03 504.66 257.8 499.37 251.88 493.84 246.98 487.11 243.25 479.33 239.87 471.37 237.7 462.47 236.84 452.8 236.32 443.06 237.09 432.65 239.22 421.67 241.57 410.69 245.07 399.69 249.55 388.79 254.05 377.86 259.41 366.98 265.48 356.24 271.43 345.42 278.02 334.68 285.13 324.13 292.04 313.49 299.47 303.05 307.34 292.97 314.99 282.92 323.13 273.35 331.68 264.51 340.06 255.97 348.93 248.39 358.24 242.07 367.44 236.39 377.16 232.21 387.34 229.78 397.48 228.23 408.14 228.52 419.26 230.77" stroke-dasharray="5 7" transform="rotate(48.48, 400, 400)" opacity="0.54"></path><path d="M421.08 241.44C431.45 244.28 441.71 248.58 451.74 254.05 461.75 259.77 471.49 266.37 480.8 273.58 490.02 280.67 498.71 288.19 506.7 295.97 514.47 303.42 521.41 311.09 527.32 318.92 532.88 326.39 537.3 334.09 540.43 342.02 543.15 349.69 544.54 357.71 544.54 366.09 544.23 374.32 542.65 383.03 539.85 392.21 537.03 401.34 533.24 411.01 528.62 421.2 524.4 431.38 519.82 441.61 515.07 451.75 510.96 461.85 506.73 471.8 502.43 481.37 498.75 490.82 494.9 499.75 490.83 507.92 487.2 515.76 483.17 522.64 478.69 528.31 474.44 533.45 469.56 537.21 464.04 539.42 458.58 541.05 452.38 541.16 445.45 539.75 438.5 538.02 430.8 535.08 422.38 531.12 413.94 527.48 404.81 523.34 395.05 518.95 385.3 515.61 375.42 512.55 365.57 509.86 355.76 508.36 346.03 507.08 336.52 505.89 327.1 505.53 317.95 504.89 309.24 503.78 300.67 503 292.6 501.42 285.18 498.92 277.98 496.4 271.51 492.79 265.92 488.1 260.61 483.25 256.24 477.33 252.95 470.41 249.97 463.36 248.09 455.4 247.43 446.65 247.05 437.85 247.87 428.33 249.94 418.19 252.21 408.05 255.54 397.79 259.78 387.54 264.05 377.28 269.14 367 274.9 356.81 280.56 346.59 286.84 336.43 293.62 326.45 300.25 316.45 307.36 306.67 314.89 297.27 322.24 287.96 330.04 279.16 338.21 271.09 346.25 263.35 354.72 256.53 363.57 250.9 372.34 245.87 381.55 242.22 391.14 240.17 400.71 238.89 410.71 239.28 421.08 241.44" stroke-dasharray="3 8" transform="rotate(52.52, 400, 400)" opacity="0.51"></path><path d="M422.17 252.11C431.77 254.77 441.19 258.75 450.34 263.8 459.47 269.11 468.28 275.25 476.64 282.01 484.91 288.7 492.64 295.85 499.67 303.28 506.52 310.48 512.58 317.92 517.67 325.53 522.49 332.86 526.27 340.41 528.89 348.15 531.19 355.67 532.33 363.48 532.24 371.56 531.93 379.52 530.49 387.85 527.98 396.54 525.46 405.19 522.07 414.25 517.9 423.69 514.07 433.13 509.84 442.5 505.4 451.67 501.49 460.82 497.39 469.7 493.18 478.15 489.49 486.48 485.6 494.23 481.51 501.22 477.8 507.93 473.73 513.7 469.29 518.36 462.67 524.07 446.85 528.35 437.45 526.89 430.99 525.29 423.86 522.65 416.12 519.13 408.36 515.92 399.99 512.24 391.07 508.27 382.15 505.19 373.14 502.27 364.16 499.59 355.22 497.9 346.37 496.34 337.73 494.83 329.18 494.06 320.89 493.06 313.02 491.67 305.29 490.64 298.02 488.96 291.38 486.52 284.92 484.13 279.14 480.83 274.18 476.61 269.46 472.3 265.6 467.04 262.73 460.87 260.13 454.61 258.54 447.5 258.05 439.61 257.81 431.67 258.66 423.02 260.66 413.72 262.83 404.42 265.98 394.93 269.97 385.4 274 375.87 278.79 366.28 284.21 356.75 289.56 347.21 295.5 337.73 301.92 328.44 308.21 319.18 314.98 310.15 322.12 301.51 329.13 293.02 336.55 285.04 344.31 277.77 351.96 270.84 359.99 264.79 368.35 259.85 376.64 255.44 385.31 252.3 394.3 250.61 403.26 249.58 412.57 250.05 422.17 252.11" stroke-dasharray="7 11" transform="rotate(56.56, 400, 400)" opacity="0.47"></path><path d="M422.49 262.79C431.29 265.25 439.88 268.9 448.15 273.54 456.4 278.41 464.3 284.07 471.73 290.33 479.08 296.58 485.9 303.29 492.04 310.31 498.04 317.16 503.28 324.29 507.65 331.59 511.8 338.68 515.02 345.98 517.21 353.44 519.17 360.73 520.09 368.25 519.96 375.98 519.66 383.61 518.38 391.52 516.14 399.67 513.93 407.8 510.92 416.22 507.18 424.88 503.72 433.55 499.86 442.05 495.75 450.27 492.05 458.46 488.14 466.31 484.07 473.68 480.43 480.94 476.57 487.6 472.51 493.51 466.75 501.58 453.85 512.38 446.47 514.75 441.48 515.63 435.96 515.39 429.93 514.05 423.91 512.61 417.33 510.29 410.24 507.2 403.13 504.4 395.5 501.16 387.4 497.6 379.29 494.78 371.13 492.01 363.02 489.37 354.95 487.55 346.96 485.79 339.2 484.03 331.51 482.91 324.09 481.58 317.06 479.94 310.14 478.65 303.67 476.82 297.78 474.39 289.5 470.51 276.77 458.84 272.62 450.95 270.38 445.37 269.05 439 268.72 431.91 268.6 424.78 269.47 416.96 271.38 408.5 273.44 400.04 276.39 391.36 280.11 382.6 283.88 373.86 288.35 365.03 293.41 356.25 298.43 347.48 304 338.78 310.01 330.26 315.95 321.81 322.31 313.61 329.03 305.81 335.66 298.17 342.65 291.04 349.95 284.6 357.17 278.48 364.72 273.19 372.55 268.91 380.33 265.12 388.42 262.46 396.76 261.09 405.09 260.3 413.69 260.83 422.49 262.79" stroke-dasharray="3 8" transform="rotate(60.599999999999994, 400, 400)" opacity="0.43"></path><path d="M422.03 273.46C430.03 275.73 437.77 279.05 445.17 283.26 452.56 287.68 459.57 292.85 466.11 298.57 472.59 304.33 478.55 310.54 483.88 317.07 489.08 323.51 493.59 330.22 497.32 337.11 500.88 343.87 503.61 350.82 505.44 357.9 507.09 364.87 507.86 372.02 507.7 379.32 507.43 386.54 506.31 393.97 504.35 401.55 502.42 409.11 499.78 416.86 496.46 424.73 493.37 432.61 489.87 440.24 486.1 447.52 482.65 454.78 478.96 461.64 475.08 467.99 471.55 474.25 467.78 479.91 463.82 484.86 458.14 491.59 445.57 500.35 438.51 502.13 431.17 502.63 414.36 499.01 404.86 495.33 398.39 492.92 391.47 490.09 384.16 486.93 376.85 484.37 369.52 481.77 362.26 479.21 355.03 477.32 347.91 475.42 341.02 473.48 334.18 472.07 327.6 470.48 321.39 468.62 312.44 466.1 297.19 458.85 291.19 453.77 286.15 448.05 280.17 433.07 279.44 423.85 279.42 417.47 280.29 410.44 282.09 402.81 284.03 395.19 286.78 387.34 290.22 379.4 293.71 371.48 297.84 363.48 302.51 355.52 307.17 347.59 312.34 339.73 317.92 332.07 323.44 324.49 329.37 317.17 335.63 310.25 341.82 303.49 348.34 297.23 355.13 291.63 361.87 286.31 368.9 281.75 376.15 278.12 383.38 274.9 390.85 272.69 398.52 271.63 406.17 271.04 414.04 271.63 422.03 273.46" stroke-dasharray="8 3" transform="rotate(64.64, 400, 400)" opacity="0.39"></path><path d="M420.81 284.13C427.98 286.2 434.88 289.19 441.44 292.96 447.97 296.93 454.13 301.57 459.84 306.74 465.49 311.97 470.65 317.63 475.22 323.61 479.7 329.55 483.56 335.76 486.71 342.16 489.75 348.48 492.06 354.98 493.59 361.6 495 368.14 495.64 374.83 495.49 381.61 495.27 388.35 494.31 395.22 492.62 402.17 490.96 409.11 488.66 416.15 485.74 423.23 483 430.3 479.87 437.06 476.45 443.44 473.28 449.8 469.84 455.73 466.21 461.15 461.03 468.88 449.91 480.96 443.9 485.03 437.83 488.04 424.24 489.75 416.64 488.54 411.49 487.49 405.96 485.79 400.09 483.51 394.23 481.48 388 479.03 381.47 476.25 374.94 473.95 368.42 471.55 362 469.11 355.59 467.21 349.32 465.22 343.26 463.17 334.37 460.66 318.29 454.95 311.37 451.41 305.11 447.63 295.68 437.52 292.72 431.05 290.7 423.99 290.69 406.91 292.81 396.98 294.61 390.17 297.14 383.17 300.28 376.09 303.47 369.02 307.25 361.88 311.52 354.8 315.79 347.76 320.52 340.8 325.63 334.04 330.72 327.37 336.17 320.96 341.92 314.94 347.62 309.08 353.63 303.68 359.87 298.89 366.08 294.35 372.54 290.51 379.17 287.48 385.8 284.8 392.62 283.01 399.58 282.22 406.53 281.81 413.64 282.43 420.81 284.13" stroke-dasharray="1 10" transform="rotate(68.68, 400, 400)" opacity="0.35"></path><path d="M418.87 294.81C431.57 298.77 443.1 305.78 452.98 314.86 462.68 324.22 470.5 335.13 475.91 346.8 480.97 358.3 483.54 370.52 483.34 382.93 482.98 395.24 480.2 407.92 475.02 420.45 470.4 432.97 464.33 444.09 457.43 453.3 451.32 462.29 444.22 469.06 436.38 473.11 429.01 476.76 420.49 477.7 410.99 475.91 401.6 474.31 390.98 470.74 379.42 465.58 367.87 461.91 356.52 457.65 346 453.11 335.62 449.97 326.27 445.91 318.61 440.75 311.3 436.15 305.89 429.78 302.93 421.6 300.45 413.46 300.51 403.29 303.53 391.3 306.91 379.31 312.77 366.71 320.43 354.32 328.13 342.1 337.5 330.34 347.91 319.96 358.24 310.15 369.66 302.2 381.63 297.01 393.57 292.92 406.17 291.99 418.87 294.81" stroke-dasharray="4 9" transform="rotate(72.72, 400, 400)" opacity="0.32"></path><path d="M416.27 305.48C427.31 308.95 437.23 315.05 445.61 322.95 453.87 331.13 460.45 340.76 464.96 351.1 469.24 361.39 471.4 372.35 471.25 383.41 471.02 394.43 468.71 405.66 464.31 416.56 460.31 427.45 454.94 436.93 448.74 444.62 443.11 452.16 436.54 457.72 429.3 460.98 422.43 464.03 414.62 464.83 406.05 463.39 397.58 462.19 388.17 459.29 378.09 454.91 368.02 451.65 358.25 447.67 349.3 443.29 340.45 439.96 332.58 435.79 326.2 430.73 320.07 426.15 315.61 420.17 313.28 412.78 311.29 405.46 311.5 396.51 314.25 386.1 317.28 375.69 322.49 364.87 329.26 354.32 336.1 343.92 344.41 334.03 353.64 325.42 362.85 317.29 372.99 310.81 383.57 306.71 394.15 303.47 405.22 302.9 416.27 305.48" stroke-dasharray="6 5" transform="rotate(76.76, 400, 400)" opacity="0.28"></path><path d="M413.11 316.15C422.51 319.14 430.86 324.31 437.85 331.02 444.75 337.99 450.21 346.24 453.92 355.15 457.5 364.09 459.33 373.62 459.24 383.21 459.12 392.8 457.26 402.49 453.59 411.76 450.21 421.04 445.57 428.97 440.12 435.31 435.07 441.56 429.16 446.11 422.65 448.77 416.41 451.33 409.4 452.09 401.83 451.01 394.33 450.16 386.14 447.87 377.52 444.23 368.89 441.41 360.66 437.79 353.2 433.69 345.81 430.36 339.32 426.25 334.13 421.41 329.12 416.96 325.53 411.42 323.74 404.82 322.2 398.3 322.51 390.52 324.97 381.66 327.64 372.8 332.15 363.72 338.01 354.98 343.93 346.37 351.13 338.3 359.13 331.38 367.12 324.83 375.92 319.71 385.06 316.6 394.2 314.11 403.71 313.84 413.11 316.15" stroke-dasharray="5 3" transform="rotate(80.80000000000001, 400, 400)" opacity="0.24"></path><path d="M409.49 326.83C417.26 329.32 424.1 333.57 429.79 339.09 435.43 344.83 439.86 351.66 442.87 359.06 445.81 366.53 447.34 374.51 447.31 382.54 447.3 390.58 445.84 398.66 442.87 406.33 440.1 413.99 436.2 420.48 431.57 425.62 427.19 430.71 422.04 434.41 416.38 436.59 410.9 438.76 404.8 439.49 398.3 438.76 391.85 438.24 384.91 436.5 377.72 433.56 370.53 431.18 363.77 428.01 357.73 424.31 351.73 421.14 346.52 417.27 342.43 412.81 338.45 408.63 335.65 403.62 334.34 397.86 333.19 392.16 333.56 385.56 335.69 378.22 337.97 370.87 341.77 363.49 346.68 356.51 351.66 349.61 357.7 343.25 364.41 337.9 371.14 332.82 378.52 328.94 386.16 326.68 393.81 324.86 401.72 324.81 409.49 326.83" stroke-dasharray="0 6" transform="rotate(84.84, 400, 400)" opacity="0.20"></path><path d="M405.55 337.5C417.86 341.76 427.07 351.29 431.85 362.93 436.52 374.85 436.87 388.38 432.15 400.55 427.93 412.71 419.97 421.01 410.46 424.58 401.39 428.24 390.23 427.75 378.7 422.89 367.16 419.43 357.36 412.96 351.09 404.94 345.08 397.67 342.99 387.68 346.4 375.97 350.23 364.25 358.8 353.08 369.52 345.05 380.35 337.7 393.23 334.47 405.55 337.5" stroke-dasharray="2 4" transform="rotate(88.88, 400, 400)" opacity="0.16"></path><path d="M401.41 348.17C410.55 351.32 417.36 358.3 420.93 366.87 424.47 375.65 424.85 385.69 421.43 394.73 418.29 403.77 412.19 410 404.84 412.83 397.72 415.77 389.1 415.69 380.41 412.21 371.72 409.52 364.56 404.27 360.12 397.78 355.81 391.72 354.44 383.79 357.12 375.02 360.04 366.25 366.49 358.29 374.52 352.84 382.64 347.77 392.26 345.73 401.41 348.17" stroke-dasharray="2 2" transform="rotate(92.92, 400, 400)" opacity="0.13"></path><path d="M397.22 358.85C409.29 363.26 415.21 377.25 410.71 389.21 406.69 401.16 394.46 406.25 382.81 401.54 371.15 398.19 364.22 387.14 367.84 375.44 371.89 363.73 385.14 355.71 397.22 358.85" stroke-dasharray="1 7" transform="rotate(96.96, 400, 400)" opacity="0.09"></path></g></svg>
