<svg xmlns="http://www.w3.org/2000/svg" version="1.1" xmlns:xlink="http://www.w3.org/1999/xlink" xmlns:svgjs="http://svgjs.dev/svgjs" viewBox="0 0 800 800"><defs><linearGradient x1="50%" y1="0%" x2="50%" y2="100%" id="ccchaos-grad"><stop stop-color="hsl(162, 100%, 58%)" stop-opacity="1" offset="0%"></stop><stop stop-color="hsl(270, 73%, 53%)" stop-opacity="1" offset="100%"></stop></linearGradient></defs><g stroke-width="2" stroke="url(#ccchaos-grad)" fill="none" stroke-linecap="round"><path d="M381.7 128.03C391.14 128.22 400.6 127.94 410.07 127.25 419.56 125.76 429.07 124.16 438.61 122.65 448.2 120.92 457.85 119.72 467.56 119.22 477.35 119.13 487.25 120.07 497.23 122.1 507.35 124.89 517.58 128.85 527.92 133.93 538.38 139.72 548.95 146.49 559.58 154.07 570.3 162.08 581.02 170.66 591.66 179.62 602.25 188.67 612.65 197.87 622.73 207.13 632.55 216.18 641.87 225.14 650.53 233.99 658.68 242.48 665.96 250.83 672.24 259.05 677.77 266.92 682.12 274.71 685.21 282.48 687.45 289.97 688.39 297.52 688.02 305.19 686.95 312.66 684.73 320.33 681.49 328.25 677.95 336.05 673.74 344.16 669.07 352.61 664.71 361 660.35 369.76 656.21 378.92 653.02 388.05 650.44 397.6 648.62 407.59 648.14 417.57 648.53 427.77 649.72 438.15 652.09 448.54 654.99 459.12 658.23 469.83 662.15 480.55 665.99 491.37 669.53 502.24 673.13 513.05 676.03 523.83 678.08 534.46 679.67 544.91 680.14 555.08 679.44 564.81 678.02 574.17 675.35 582.9 671.48 590.84 666.86 598.18 661.13 604.54 654.4 609.79 647.06 614.31 638.89 617.64 630.03 619.77 620.8 621.29 611.05 621.76 600.93 621.34 590.65 620.81 580.13 619.83 569.49 618.7 558.82 618.29 548.12 618.36 537.45 619.23 526.84 621.62 516.29 625.28 505.83 630.38 495.47 637.26 485.2 645.51 475.03 654.93 464.95 665.44 454.95 676.37 445.04 687.16 435.19 697.54 425.4 706.64 415.69 713.85 406.01 719.09 396.37 721.6 386.81 721.11 377.25 718.14 367.97 712.45 358.98 704.53 349.97 695.28 341.25 684.92 332.81 674.11 324.36 663.72 316.19 653.96 308.32 645.26 300.42 638.21 292.8 632.68 285.49 628.68 278.13 626.54 271.04 625.66 264.24 625.77 257.36 627.05 250.74 628.66 244.37 630.22 237.89 632 231.62 633.12 225.56 633.31 219.35 632.98 213.31 631.39 207.45 628.5 201.39 624.77 195.49 619.71 189.74 613.45 183.78 606.4 177.97 598.32 172.34 589.41 166.52 579.94 160.89 569.87 155.49 559.38 149.96 548.61 144.71 537.6 139.78 526.49 134.82 515.29 130.24 504.11 126.1 493.02 122.03 481.94 118.46 471 115.46 460.25 112.62 449.53 110.4 439 108.84 428.7 107.51 418.41 106.87 408.33 106.96 398.48 107.3 388.63 108.35 379.23 110.07 370.26 111.98 361.27 114.51 352.71 117.6 344.55 120.79 336.36 124.48 328.55 128.6 321.12 132.73 313.6 137.22 306.4 142.03 299.5 146.74 292.43 151.72 285.58 156.92 278.9 161.94 271.95 167.16 265.06 172.54 258.18 177.71 250.92 183.04 243.57 188.53 236.09 193.81 228.17 199.27 220.07 204.9 211.81 210.35 203.17 216.02 194.42 221.9 185.65 227.66 176.73 233.67 167.98 239.94 159.55 246.13 151.34 252.62 143.72 259.39 136.89 266.12 130.66 273.16 125.44 280.5 121.37 287.82 118.11 295.45 116.04 303.36 115.18 311.27 114.96 319.47 115.72 327.93 117.32 336.39 119.05 345.11 121.18 354.08 123.51 363.04 125.28 372.25 126.84 381.69 128.03" stroke-dasharray="6 5" transform="rotate(0, 400, 400)" opacity="0.05"></path><path d="M384.86 139.43C394.01 139.64 403.21 139.41 412.45 138.78 421.71 137.38 431.03 135.85 440.4 134.38 449.81 132.65 459.31 131.37 468.87 130.7 478.51 130.36 488.26 130.94 498.09 132.54 508.01 134.8 518.04 138.17 528.14 142.62 538.32 147.77 548.56 153.89 558.81 160.84 569.08 168.29 579.29 176.36 589.36 184.91 599.33 193.63 609.02 202.62 618.34 211.74 627.36 220.77 635.84 229.8 643.63 238.77 650.91 247.48 657.34 256.09 662.77 264.58 667.52 272.77 671.17 280.88 673.63 288.95 675.34 296.74 675.87 304.56 675.23 312.43 673.99 320.11 671.74 327.93 668.6 335.93 665.24 343.81 661.3 351.92 656.96 360.31 652.97 368.64 648.97 377.28 645.18 386.26 642.27 395.21 639.9 404.54 638.2 414.23 637.72 423.93 638.01 433.78 639.01 443.76 641.09 453.74 643.65 463.84 646.53 474.01 650.07 484.15 653.55 494.32 656.8 504.44 660.16 514.46 662.92 524.34 664.95 533.97 666.63 543.38 667.32 552.41 666.97 560.92 666.01 569.04 663.92 576.47 660.72 583.09 656.85 589.16 651.92 594.29 646.04 598.37 639.58 601.87 632.3 604.33 624.31 605.77 615.93 606.81 607.01 607.05 597.65 606.63 588.09 606.33 578.24 605.82 568.19 605.36 558.08 605.74 547.87 606.7 537.63 608.53 527.42 611.81 517.21 616.3 507.07 622.07 496.98 629.41 486.97 637.91 477.04 647.33 467.18 657.62 457.4 668.13 447.72 678.35 438.08 688.09 428.51 696.54 419.05 703.16 409.6 707.96 400.22 710.22 390.94 709.71 381.65 706.92 372.65 701.63 363.95 694.24 355.24 685.58 346.81 675.8 338.67 665.49 330.51 655.44 322.63 645.82 315.04 637.05 307.41 629.69 300.05 623.64 292.97 618.95 285.84 615.96 278.96 614.19 272.34 613.42 265.64 613.86 259.17 614.77 252.92 615.83 246.55 617.3 240.38 618.35 234.4 618.75 228.26 618.85 222.28 617.94 216.46 615.93 210.45 613.26 204.58 609.4 198.86 604.42 192.95 598.73 187.19 592.03 181.59 584.45 175.83 576.33 170.27 567.52 164.92 558.18 159.48 548.51 154.3 538.5 149.45 528.26 144.58 517.88 140.09 507.41 136.02 496.94 132.05 486.42 128.56 475.97 125.62 465.65 122.86 455.34 120.69 445.17 119.17 435.19 117.89 425.22 117.28 415.43 117.38 405.86 117.73 396.28 118.77 387.13 120.46 378.38 122.35 369.62 124.84 361.24 127.88 353.24 131.03 345.18 134.66 337.47 138.72 330.07 142.79 322.57 147.22 315.33 151.97 308.31 156.63 301.11 161.56 294.06 166.7 287.11 171.68 279.89 176.86 272.68 182.2 265.43 187.33 257.84 192.63 250.14 198.07 242.31 203.31 234.11 208.71 225.77 214.27 217.32 219.65 208.6 225.23 199.86 230.99 191.18 236.62 182.47 242.48 174.02 248.58 165.98 254.58 158.25 260.84 151.17 267.37 144.91 273.85 139.28 280.6 134.65 287.64 131.14 294.65 128.38 301.95 126.75 309.53 126.24 317.09 126.29 324.94 127.23 333.06 128.92 341.17 130.67 349.54 132.78 358.18 135.05 366.81 136.77 375.7 138.27 384.85 139.43" stroke-dasharray="5 5" transform="rotate(4.04, 400, 400)" opacity="0.09"></path><path d="M388.69 150.84C397.56 151.07 406.5 150.88 415.5 150.31 424.52 149 433.62 147.56 442.79 146.13 451.99 144.42 461.29 143.09 470.65 142.29 480.08 141.73 489.6 142.01 499.2 143.19 508.86 144.97 518.59 147.78 528.36 151.6 538.17 156.1 548 161.54 557.77 167.84 567.52 174.66 577.15 182.15 586.57 190.18 595.85 198.47 604.81 207.1 613.33 215.97 621.55 224.83 629.19 233.79 636.12 242.75 642.57 251.55 648.17 260.29 652.83 268.96 656.86 277.39 659.86 285.75 661.77 294.05 663.03 302.12 663.22 310.18 662.36 318.25 661.02 326.15 658.78 334.13 655.75 342.23 652.59 350.21 648.93 358.36 644.93 366.72 641.28 375.02 637.64 383.56 634.18 392.37 631.54 401.16 629.37 410.24 627.78 419.62 627.31 429.01 627.5 438.47 628.33 447.99 630.14 457.51 632.38 467.06 634.92 476.59 638.08 486.08 641.21 495.51 644.16 504.78 647.26 513.94 649.86 522.86 651.83 531.44 653.54 539.79 654.4 547.68 654.33 554.99 653.75 561.94 652.15 568.17 649.54 573.61 646.34 578.57 642.16 582.66 637.07 585.81 631.45 588.53 625.01 590.38 617.88 591.39 610.35 592.21 602.25 592.44 593.68 592.25 584.89 592.35 575.75 592.43 566.36 592.73 556.87 593.93 547.22 595.79 537.49 598.52 527.75 602.61 517.97 607.81 508.22 614.14 498.49 621.82 488.8 630.45 479.18 639.79 469.6 649.78 460.09 659.83 450.67 669.47 441.29 678.56 431.99 686.37 422.78 692.44 413.59 696.81 404.48 698.83 395.46 698.3 386.45 695.7 377.73 690.78 369.3 683.9 360.86 675.82 352.7 666.62 344.83 656.83 336.93 647.16 329.3 637.76 321.95 629 314.55 621.42 307.42 614.95 300.54 609.67 293.6 605.93 286.89 603.32 280.43 601.7 273.86 601.28 267.51 601.44 261.37 601.88 255.09 602.89 249 603.69 243.07 604.07 236.99 604.37 231.06 603.88 225.27 602.51 219.31 600.66 213.48 597.78 207.8 593.88 201.94 589.4 196.22 583.95 190.68 577.63 184.99 570.8 179.49 563.25 174.22 555.09 168.86 546.6 163.78 537.66 159.01 528.4 154.25 518.96 149.86 509.32 145.89 499.58 142.01 489.77 138.62 479.94 135.76 470.15 133.08 460.35 130.98 450.63 129.5 441.04 128.27 431.46 127.69 422.01 127.79 412.72 128.15 403.43 129.18 394.52 130.84 385.96 132.7 377.39 135.14 369.15 138.12 361.23 141.21 353.26 144.78 345.57 148.76 338.13 152.76 330.58 157.13 323.22 161.8 316.03 166.4 308.65 171.26 301.36 176.34 294.12 181.28 286.63 186.41 279.11 191.7 271.53 196.81 263.65 202.07 255.67 207.46 247.58 212.67 239.2 218.03 230.74 223.53 222.23 228.85 213.55 234.35 204.93 240.03 196.47 245.56 188.08 251.3 180.03 257.25 172.48 263.1 165.28 269.18 158.79 275.51 153.15 281.77 148.12 288.29 144.09 295.07 141.12 301.81 138.85 308.83 137.63 316.11 137.43 323.37 137.72 330.91 138.8 338.72 140.56 346.51 142.33 354.57 144.4 362.9 146.6 371.22 148.26 379.82 149.71 388.68 150.84" stroke-dasharray="5 10" transform="rotate(8.08, 400, 400)" opacity="0.13"></path><path d="M393.03 162.24C401.62 162.49 410.29 162.34 419.04 161.85 427.8 160.63 436.65 159.28 445.57 157.92 454.53 156.25 463.57 154.89 472.68 154 481.84 153.26 491.07 153.26 500.35 154.08 509.67 155.4 519.03 157.68 528.39 160.91 537.75 164.75 547.08 169.52 556.3 175.14 565.47 181.27 574.46 188.12 583.19 195.56 591.74 203.31 599.94 211.48 607.66 219.96 615.07 228.52 621.88 237.26 627.99 246.08 633.65 254.82 638.49 263.57 642.43 272.28 645.81 280.84 648.24 289.34 649.66 297.78 650.54 306.05 650.46 314.29 649.44 322.52 648.03 330.6 645.84 338.71 642.96 346.89 640.01 354.96 636.64 363.15 632.97 371.47 629.66 379.74 626.35 388.19 623.21 396.82 620.82 405.43 618.84 414.26 617.37 423.29 616.9 432.33 617.01 441.37 617.67 450.38 619.23 459.38 621.18 468.33 623.38 477.17 626.18 485.96 628.97 494.59 631.61 502.99 634.45 511.26 636.86 519.21 638.73 526.76 640.44 534.08 641.39 540.89 641.53 547.1 640.67 555.58 633.62 568.3 627.5 572.41 622.65 574.6 617.02 576.08 610.7 576.92 604.01 577.74 596.73 578.18 588.96 578.39 580.94 579.02 572.54 579.78 563.86 580.89 555.04 582.92 546.01 585.63 536.85 589.19 527.65 594 518.37 599.79 509.06 606.56 499.76 614.46 490.47 623.11 481.21 632.28 471.98 641.91 462.8 651.45 453.69 660.5 444.61 668.94 435.59 676.14 426.67 681.67 417.76 685.64 408.93 687.44 400.19 686.9 391.45 684.47 383 679.91 374.84 673.53 366.66 666.01 358.76 657.39 351.13 648.13 343.47 638.88 336.06 629.75 328.92 621.08 321.73 613.38 314.78 606.59 308.07 600.83 301.29 596.43 294.73 593.06 288.39 590.63 281.95 589.37 275.69 588.73 269.63 588.5 263.44 588.92 257.4 589.32 251.53 589.49 245.5 589.77 239.61 589.47 233.86 588.49 227.95 587.21 222.16 585.07 216.51 582.05 210.71 578.57 205.06 574.21 199.57 569.01 193.96 563.38 188.55 557 183.37 550 178.12 542.66 173.14 534.82 168.48 526.58 163.83 518.14 159.55 509.41 155.69 500.49 151.93 491.48 148.64 482.35 145.87 473.18 143.27 463.99 141.25 454.8 139.83 445.66 138.64 436.51 138.09 427.44 138.21 418.47 138.57 409.49 139.59 400.82 141.21 392.44 143.03 384.05 145.42 375.92 148.32 368.05 151.34 360.13 154.83 352.42 158.72 344.9 162.65 337.27 166.93 329.78 171.52 322.39 176.05 314.83 180.84 307.31 185.85 299.8 190.74 292.07 195.81 284.29 201.05 276.46 206.12 268.37 211.34 260.21 216.69 251.98 221.86 243.54 227.18 235.07 232.63 226.63 237.92 218.13 243.36 209.76 248.96 201.64 254.41 193.67 260.06 186.11 265.89 179.11 271.61 172.52 277.55 166.65 283.71 161.63 289.78 157.22 296.11 153.77 302.67 151.32 309.18 149.51 315.96 148.67 322.99 148.75 329.98 149.25 337.24 150.46 344.77 152.26 352.27 154.02 360.05 156.04 368.09 158.17 376.12 159.76 384.43 161.15 393.02 162.24" stroke-dasharray="5 0" transform="rotate(12.12, 400, 400)" opacity="0.16"></path><path d="M397.68 173.65C405.99 173.91 414.38 173.81 422.85 173.38 431.34 172.27 439.91 171.01 448.55 169.73 457.21 168.12 465.95 166.76 474.75 165.8 483.57 164.92 492.45 164.69 501.34 165.19 510.26 166.1 519.17 167.89 528.05 170.55 536.9 173.77 545.67 177.87 554.28 182.79 562.81 188.23 571.12 194.38 579.13 201.16 586.94 208.29 594.36 215.9 601.29 223.87 607.91 232.01 613.93 240.39 619.26 248.92 624.17 257.46 628.31 266.07 631.6 274.69 634.4 283.23 636.33 291.74 637.35 300.22 637.91 308.58 637.61 316.9 636.49 325.2 635.06 333.38 632.95 341.57 630.24 349.78 627.52 357.91 624.42 366.09 621.08 374.34 618.09 382.55 615.11 390.87 612.27 399.3 610.12 407.71 608.32 416.25 606.95 424.92 606.49 433.58 606.53 442.17 607.04 450.64 608.37 459.09 610.03 467.41 611.93 475.54 614.38 483.61 616.84 491.45 619.18 498.97 621.74 506.38 623.95 513.41 625.7 519.98 627.84 529.28 628.18 544.6 626.09 550.4 622.55 555.13 610.8 561.09 602.81 562.66 596.91 563.68 590.42 564.49 583.44 565.23 576.2 566.48 568.56 567.98 560.59 569.9 552.47 572.72 544.11 576.23 535.57 580.52 526.96 585.93 518.23 592.19 509.43 599.27 500.62 607.28 491.78 615.86 482.94 624.78 474.11 633.99 465.3 643 456.54 651.43 447.8 659.25 439.11 665.84 430.5 670.87 421.9 674.45 413.36 676.04 404.91 675.49 396.46 673.24 388.28 669.02 380.37 663.11 372.45 656.14 364.78 648.1 357.38 639.38 349.94 630.58 342.74 621.76 335.79 613.26 328.78 605.53 322 598.53 315.44 592.39 308.8 587.44 302.37 583.4 296.13 580.23 289.79 578.17 283.62 576.75 277.62 575.79 271.5 575.55 265.53 575.43 259.7 575.25 253.73 575.3 247.88 574.99 242.17 574.17 236.32 573.22 230.58 571.58 224.99 569.2 219.26 566.51 213.68 563.02 208.27 558.78 202.76 554.18 197.45 548.87 192.37 542.92 187.24 536.68 182.38 529.89 177.84 522.65 173.33 515.21 169.18 507.42 165.43 499.35 161.8 491.18 158.62 482.81 155.95 474.32 153.46 465.79 151.51 457.18 150.15 448.53 149.02 439.89 148.5 431.23 148.63 422.59 148.99 413.95 149.98 405.54 151.56 397.34 153.34 389.13 155.66 381.12 158.48 373.29 161.43 365.42 164.82 357.69 168.62 350.09 172.45 342.39 176.64 334.77 181.13 327.21 185.57 319.5 190.28 311.8 195.2 304.08 200.02 296.19 205.03 288.24 210.21 280.25 215.23 272.07 220.4 263.85 225.71 255.6 230.85 247.24 236.13 238.91 241.53 230.68 246.78 222.47 252.17 214.48 257.7 206.8 263.1 199.34 268.66 192.36 274.39 185.96 280.02 180.01 285.83 174.79 291.85 170.4 297.78 166.6 303.94 163.71 310.31 161.76 316.63 160.37 323.19 159.87 330 160.21 336.76 160.88 343.77 162.18 351.04 164 358.29 165.74 365.8 167.7 373.57 169.74 381.33 171.26 389.36 172.6 397.67 173.65" stroke-dasharray="0 8" transform="rotate(16.16, 400, 400)" opacity="0.20"></path><path d="M402.43 185.05C410.45 185.32 418.55 185.27 426.72 184.91 434.91 183.9 443.17 182.76 451.48 181.56 459.81 180.03 468.2 178.7 476.63 177.69 485.06 176.72 493.53 176.3 501.98 176.52 510.43 177.07 518.84 178.41 527.17 180.54 535.46 183.17 543.62 186.63 551.59 190.86 559.45 195.59 567.06 201.03 574.33 207.1 581.4 213.55 588.05 220.51 594.21 227.89 600.06 235.49 605.33 243.39 609.94 251.5 614.17 259.69 617.66 268.01 620.38 276.4 622.68 284.77 624.17 293.16 624.86 301.54 625.16 309.85 624.7 318.14 623.52 326.4 622.11 334.58 620.11 342.76 617.59 350.92 615.1 359.02 612.29 367.13 609.27 375.26 606.58 383.37 603.91 391.51 601.36 399.69 599.43 407.86 597.8 416.09 596.54 424.36 596.08 432.62 596.05 440.73 596.43 448.64 597.54 456.54 598.95 464.22 600.55 471.65 602.68 479.03 604.82 486.1 606.86 492.81 610.14 502.51 614.78 519.39 615.66 526.36 613.29 536.98 601.14 547.04 594.2 548.89 589.05 550.26 583.32 551.56 577.09 552.92 570.62 554.85 563.73 557.09 556.48 559.79 549.08 563.35 541.4 567.56 533.51 572.48 525.53 578.37 517.39 584.98 509.15 592.24 500.87 600.25 492.52 608.67 484.15 617.26 475.77 626.01 467.38 634.46 459.01 642.28 450.66 649.47 442.33 655.48 434.05 660.02 425.78 663.24 417.56 664.64 409.41 664.08 401.26 662 393.35 658.11 385.7 652.66 378.03 646.22 370.6 638.74 363.41 630.57 356.19 622.24 349.19 613.8 342.4 605.52 335.57 597.85 328.95 590.74 322.51 584.33 316.01 578.93 309.69 574.33 303.54 570.5 297.31 567.7 291.22 565.52 285.29 563.84 279.24 562.89 273.33 562.17 267.55 561.51 258.75 560.94 241.57 558.3 233.22 555.65 227.58 553.5 222.09 550.68 216.78 547.19 211.38 543.44 206.19 539.02 201.22 534 196.24 528.73 191.52 522.9 187.11 516.6 182.74 510.12 178.73 503.23 175.12 496.01 171.63 488.68 168.57 481.09 166.01 473.29 163.62 465.45 161.76 457.45 160.47 449.33 159.4 441.21 158.91 433 159.04 424.73 159.41 416.46 160.37 408.33 161.9 400.34 163.62 392.33 165.87 384.45 168.6 376.69 171.46 368.89 174.76 361.17 178.44 353.52 182.17 345.79 186.25 338.1 190.62 330.43 194.97 322.64 199.58 314.84 204.41 307.01 209.15 299.05 214.08 291.05 219.17 283.03 224.14 274.89 229.26 266.75 234.5 258.63 239.6 250.48 244.84 242.42 250.19 234.53 255.4 226.73 260.74 219.22 266.21 212.07 271.55 205.21 277.05 198.85 282.7 193.11 288.23 187.82 293.95 183.25 299.84 179.5 305.65 176.28 311.66 173.92 317.88 172.43 324.03 171.44 330.4 171.24 337 171.79 343.55 172.61 350.35 173.97 357.38 175.79 364.38 177.49 371.64 179.38 379.15 181.32 386.64 182.77 394.4 184.04 402.42 185.05" stroke-dasharray="2 9" transform="rotate(20.200000000000003, 400, 400)" opacity="0.24"></path><path d="M407.07 196.46C414.79 196.74 422.59 196.73 430.43 196.44 438.29 195.54 446.21 194.5 454.16 193.41 462.12 191.96 470.12 190.68 478.12 189.67 486.12 188.63 494.12 188.06 502.08 188.05 510.02 188.3 517.88 189.24 525.63 190.9 533.32 192.98 540.84 195.83 548.14 199.4 555.32 203.43 562.21 208.15 568.75 213.49 575.08 219.22 581 225.48 586.42 232.18 591.55 239.15 596.13 246.46 600.07 254.04 603.68 261.75 606.61 269.65 608.82 277.66 610.68 285.71 611.81 293.83 612.23 301.97 612.33 310.09 611.77 318.22 610.57 326.32 609.22 334.39 607.34 342.43 605.03 350.44 602.77 358.43 600.24 366.39 597.53 374.33 595.14 382.25 592.76 390.16 590.47 398.05 588.75 405.94 587.28 413.81 586.12 421.66 585.67 429.5 585.59 437.11 585.84 444.48 586.76 451.82 587.92 458.9 589.26 465.67 591.07 472.39 592.91 478.76 594.66 484.75 597.54 493.38 601.76 508.2 602.66 514.26 600.99 523.7 590.91 533.51 584.93 535.86 580.46 537.7 575.44 539.57 569.93 541.59 564.2 544.2 558.03 547.16 551.5 550.58 544.81 554.79 537.82 559.6 530.59 565.02 523.26 571.26 515.74 578.09 508.07 585.42 500.37 593.33 492.55 601.49 484.68 609.69 476.79 617.94 468.85 625.81 460.91 633.02 452.97 639.6 445.03 645.05 437.12 649.14 429.21 652.02 421.33 653.24 413.49 652.68 405.65 650.75 398.03 647.17 390.64 642.17 383.23 636.24 376.04 629.32 369.06 621.7 362.05 613.87 355.24 605.83 348.62 597.84 341.96 590.31 335.48 583.18 329.18 576.6 322.81 570.87 316.6 565.81 310.55 561.43 304.41 557.96 298.41 555.09 292.54 552.71 286.58 551.06 280.74 549.69 275.02 548.48 266.33 547.26 249.4 544.18 241.18 541.77 235.65 539.93 230.27 537.55 225.07 534.61 219.82 531.49 214.76 527.78 209.94 523.51 205.11 519.06 200.55 514.07 196.29 508.59 192.09 502.97 188.23 496.91 184.77 490.49 181.42 483.96 178.5 477.12 176.05 470.01 173.78 462.85 172.01 455.47 170.79 447.9 169.77 440.32 169.32 432.58 169.46 424.7 169.82 416.83 170.76 409.01 172.23 401.25 173.9 393.49 176.06 385.78 178.7 378.13 181.46 370.44 184.64 362.79 188.2 355.16 191.81 347.48 195.77 339.79 200.01 332.1 204.25 324.33 208.74 316.53 213.45 308.71 218.1 300.82 222.93 292.9 227.93 284.98 232.83 277.02 237.87 269.09 243.05 261.25 248.09 253.44 253.27 245.78 258.56 238.35 263.72 231.07 269.01 224.12 274.42 217.59 279.71 211.37 285.14 205.69 290.7 200.62 296.17 196 301.79 192.08 307.57 188.93 313.27 186.28 319.15 184.42 325.22 183.35 331.22 182.7 337.43 182.77 343.83 183.5 350.2 184.42 356.79 185.83 363.59 187.62 370.37 189.27 377.38 191.07 384.63 192.91 391.86 194.28 399.34 195.49 407.06 196.46" stroke-dasharray="4 3" transform="rotate(24.24, 400, 400)" opacity="0.28"></path><path d="M411.4 207.87C418.81 208.16 426.27 208.18 433.77 207.97 441.27 207.17 448.81 206.25 456.36 205.26 463.92 203.93 471.49 202.71 479.03 201.72 486.56 200.65 494.06 199.99 501.48 199.79 508.88 199.79 516.16 200.39 523.3 201.63 530.36 203.21 537.23 205.49 543.85 208.44 550.35 211.8 556.54 215.81 562.36 220.43 568 225.42 573.21 230.94 577.93 236.93 582.4 243.19 586.34 249.83 589.69 256.78 592.74 263.91 595.17 271.26 596.95 278.77 598.44 286.37 599.28 294.08 599.48 301.85 599.45 309.64 598.83 317.46 597.66 325.28 596.38 333.1 594.65 340.9 592.55 348.66 590.53 356.41 588.27 364.13 585.86 371.79 583.75 379.45 581.65 387.07 579.61 394.62 578.09 402.17 576.77 409.65 575.7 417.05 575.27 424.45 575.13 431.58 575.28 438.41 576.02 445.23 576.95 451.74 578.04 457.91 580.34 466.92 585.07 482.94 587.07 489.83 589.33 501.35 587.15 514.39 584.14 517.56 580.16 520.77 569.01 527.39 561.98 531.32 556.93 534.57 551.46 538.19 545.61 542.24 539.62 547.01 533.31 552.28 526.73 558.07 520.06 564.55 513.16 571.47 506.09 578.76 498.98 586.46 491.72 594.3 484.37 602.06 477 609.78 469.55 617.06 462.06 623.66 454.57 629.64 447.05 634.57 439.52 638.22 432 640.78 424.48 641.83 416.97 641.27 409.46 639.49 402.15 636.22 395.02 631.64 387.89 626.21 380.94 619.83 374.17 612.76 367.39 605.44 360.77 597.84 354.32 590.19 347.84 582.87 341.51 575.81 335.34 569.17 329.11 563.22 323.02 557.81 317.06 552.98 311.04 548.95 305.13 545.46 299.35 542.44 293.49 540.1 287.73 538.09 282.09 536.29 273.55 534.3 256.93 530.35 248.87 527.9 240.86 525.1 225.63 517.13 218.52 511.83 213.87 508.01 209.47 503.7 205.39 498.92 201.36 494.02 197.67 488.7 194.37 482.98 191.18 477.18 188.4 471.03 186.08 464.57 183.92 458.07 182.25 451.28 181.1 444.26 180.15 437.22 179.73 429.97 179.88 422.51 180.23 415.05 181.14 407.57 182.56 400.1 184.15 392.62 186.23 385.14 188.76 377.66 191.41 370.16 194.47 362.65 197.89 355.13 201.38 347.57 205.2 339.99 209.3 332.39 213.41 324.75 217.77 317.09 222.34 309.42 226.88 301.71 231.6 294.01 236.49 286.35 241.29 278.7 246.25 271.13 251.33 263.69 256.31 256.34 261.41 249.19 266.63 242.32 271.73 235.64 276.95 229.34 282.29 223.48 287.52 217.94 292.88 212.94 298.36 208.56 303.74 204.6 309.27 201.31 314.95 198.74 320.54 196.61 326.3 195.2 332.22 194.51 338.09 194.16 344.13 194.45 350.36 195.32 356.54 196.32 362.93 197.74 369.51 199.48 376.07 201.07 382.84 202.78 389.82 204.51 396.79 205.8 403.98 206.93 411.39 207.86" stroke-dasharray="6 1" transform="rotate(28.28, 400, 400)" opacity="0.32"></path><path d="M415.22 219.27C422.3 219.57 429.41 219.64 436.53 219.48 443.66 218.8 450.8 217.99 457.92 217.12 465.05 215.9 472.15 214.77 479.2 213.82 486.24 212.76 493.21 212.04 500.07 211.71 506.89 211.5 513.58 211.82 520.1 212.7 526.53 213.85 532.75 215.62 538.7 218 544.53 220.73 550.04 224.08 555.18 227.99 560.15 232.24 564.71 237.02 568.8 242.26 572.66 247.78 576.02 253.7 578.84 259.96 581.41 266.41 583.41 273.12 584.83 280.03 586.02 287.07 586.63 294.25 586.68 301.52 586.55 308.85 585.91 316.25 584.8 323.66 583.62 331.1 582.06 338.53 580.17 345.94 578.39 353.35 576.4 360.73 574.27 368.04 572.43 375.36 570.58 382.61 568.79 389.77 567.45 396.94 566.27 404.01 565.29 410.95 564.87 417.9 564.69 424.55 564.74 430.89 565.68 440.21 568.79 457.12 570.64 464.64 574.34 477.78 576.97 493.67 576.27 497.76 571.9 505.4 559.41 517.3 553.28 522.14 548.87 525.98 544.04 530.17 538.85 534.75 533.51 539.94 527.86 545.55 521.92 551.59 515.89 558.16 509.62 565.06 503.15 572.2 496.63 579.62 489.94 587.06 483.13 594.34 476.29 601.5 469.34 608.19 462.33 614.19 455.31 619.6 448.23 624.02 441.11 627.26 433.99 629.52 426.85 630.42 419.69 629.87 412.54 628.23 405.53 625.25 398.69 621.06 391.85 616.11 385.15 610.27 378.62 603.74 372.06 596.94 365.65 589.81 359.38 582.55 353.09 575.5 346.92 568.6 340.89 561.99 334.82 555.93 328.86 550.3 323.02 545.13 317.13 540.64 311.34 536.63 305.66 533.04 299.92 530.09 294.27 527.46 288.74 525.07 280.38 522.25 264.14 517.14 256.3 514.42 248.53 511.58 233.81 504.17 226.97 499.42 220.41 494.15 208.82 481.33 203.93 473.86 200.91 468.68 198.28 463.14 196.09 457.27 194.06 451.36 192.49 445.15 191.41 438.65 190.52 432.14 190.14 425.36 190.29 418.34 190.64 411.31 191.51 404.22 192.87 397.07 194.39 389.93 196.38 382.73 198.79 375.5 201.33 368.26 204.25 360.98 207.53 353.66 210.87 346.34 214.54 338.98 218.48 331.6 222.44 324.21 226.65 316.8 231.08 309.41 235.48 302.03 240.07 294.68 244.82 287.41 249.51 280.2 254.36 273.1 259.33 266.18 264.21 259.4 269.22 252.85 274.34 246.62 279.37 240.61 284.51 234.99 289.76 229.83 294.92 224.99 300.19 220.69 305.57 216.98 313.59 212.3 330.18 206.76 338.77 205.9 344.49 205.81 350.38 206.27 356.42 207.24 362.43 208.29 368.61 209.7 374.97 211.38 381.3 212.88 387.83 214.49 394.53 216.12 401.23 217.31 408.12 218.38 415.21 219.27" stroke-dasharray="10 3" transform="rotate(32.32, 400, 400)" opacity="0.35"></path><path d="M418.36 230.68C425.09 230.98 431.84 231.08 438.56 231 445.29 230.42 452 229.73 458.67 228.98 465.34 227.88 471.96 226.86 478.5 225.97 485.02 224.95 491.44 224.21 497.74 223.79 503.98 223.44 510.07 223.54 515.97 224.11 524.57 225.56 540.29 231.62 547.23 236.22 553.56 241.8 563.8 255.68 567.58 263.79 569.73 269.51 571.38 275.52 572.51 281.75 573.45 288.13 573.89 294.69 573.84 301.37 573.66 308.14 573.04 315 572.01 321.9 570.95 328.85 569.56 335.82 567.89 342.77 566.34 349.75 564.61 356.69 562.75 363.58 561.16 370.48 559.55 377.31 557.98 384.03 556.81 390.77 555.77 397.4 554.87 403.89 554.47 410.38 554.25 416.58 554.22 422.46 554.92 431.11 557.35 446.74 558.82 453.69 561.87 466.01 564.09 481.48 563.52 485.77 559.88 494.36 549.22 508.41 543.89 514.07 540.05 518.4 535.82 523.04 531.23 528.02 526.51 533.51 521.47 539.34 516.15 545.48 510.73 552.03 505.07 558.8 499.19 565.69 493.26 572.76 487.14 579.75 480.87 586.51 474.57 593.1 468.14 599.19 461.62 604.62 455.08 609.47 448.45 613.4 441.76 616.26 435.07 618.25 428.32 619.01 421.54 618.46 414.75 616.96 408.08 614.25 401.54 610.45 395 605.96 388.58 600.63 382.29 594.64 375.98 588.36 369.79 581.72 363.73 574.89 357.64 568.17 351.66 561.51 345.79 555.02 339.89 548.95 334.09 543.2 328.39 537.82 322.65 532.99 317 528.56 311.46 524.51 305.86 521.01 300.35 517.82 294.95 514.89 286.82 511.23 271.06 504.8 263.46 501.64 255.97 498.55 241.85 491.21 235.31 486.76 229.07 481.93 218.08 470.34 213.46 463.58 209.38 456.41 203.46 440.31 201.72 431.45 200.9 425.44 200.56 419.13 200.71 412.56 201.05 405.98 201.88 399.29 203.17 392.52 204.62 385.76 206.51 378.91 208.8 372.01 211.2 365.1 213.99 358.14 217.1 351.14 220.3 344.15 223.8 337.11 227.57 330.08 231.37 323.05 235.41 316.03 239.67 309.05 243.91 302.11 248.35 295.24 252.95 288.48 257.5 281.8 262.21 275.29 267.04 268.98 271.81 262.84 276.71 256.96 281.71 251.42 286.64 246.11 291.67 241.2 296.81 236.76 301.87 232.61 307.04 228.98 312.32 225.91 320.18 222.1 336.39 217.93 344.76 217.51 350.34 217.63 356.06 218.23 361.91 219.26 367.73 220.33 373.71 221.7 379.83 223.3 385.93 224.72 392.2 226.21 398.62 227.73 405.03 228.84 411.61 229.83 418.35 230.68" stroke-dasharray="2 7" transform="rotate(36.36, 400, 400)" opacity="0.39"></path><path d="M420.68 242.08C427.05 242.39 433.41 242.53 439.72 242.5 446.03 242.03 452.3 241.45 458.51 240.82 470.89 238.63 482.95 236.88 494.43 236.01 505.74 235.18 516.28 236.03 525.77 238.7 534.83 242.28 542.58 247.86 548.76 255.22 554.29 263.52 558.09 273.32 560.04 284.22 561.43 295.68 561.14 307.89 559.31 320.45 557.5 333.25 554.72 346.18 551.31 358.96 549.95 365.37 548.57 371.73 547.2 378 546.19 384.27 545.27 390.44 544.45 396.49 543.95 405.41 544.21 421.82 544.86 429.27 546.72 439 548.4 447.54 549.57 454.94 551.17 462.45 551.64 469.06 550.77 475.01 549.61 481.57 546.8 488.04 542.36 494.8 537.39 502.91 530.81 511.93 522.83 521.99 514.42 533.65 504.81 546.23 494.24 559.19 483.46 572.47 471.93 584.77 459.87 594.92 453.82 599.25 447.66 602.73 441.41 605.23 435.16 606.96 428.82 607.59 422.42 607.06 416.02 605.69 409.7 603.24 403.49 599.81 397.27 595.75 391.14 590.92 385.11 585.46 373.03 573.76 361.3 560.99 349.98 548.21 338.55 536.63 327.43 526.09 316.72 516.8 305.84 509.4 295.31 502.99 285.24 497.2 275.06 492.61 265.38 487.88 256.38 482.6 247.44 477.68 239.32 471.71 232.27 464.53 225.53 457.31 220.06 448.77 216.09 438.94 213.64 431.38 211.12 414.72 211.13 405.67 211.46 399.55 212.25 393.29 213.47 386.94 214.84 380.59 216.62 374.16 218.78 367.65 223.43 354.67 229.45 341.46 236.56 328.25 243.83 315.19 252 302.27 260.86 289.85 269.61 277.88 278.94 266.74 288.71 256.87 298.24 247.91 308.21 240.63 318.54 235.38 328.64 231.28 339.18 229.26 350.12 229.33 360.91 229.99 372.2 232.1 383.96 235.25 389.82 236.56 395.81 237.94 401.93 239.34 408.04 240.36 414.29 241.28 420.67 242.08" stroke-dasharray="8 10" transform="rotate(40.400000000000006, 400, 400)" opacity="0.43"></path><path d="M422.08 253.49C434.07 253.66 445.87 253.34 457.33 252.66 468.76 250.75 479.76 249.19 490.13 248.34 500.32 247.38 509.71 247.81 518.05 249.81 526.02 252.47 532.73 256.92 537.99 263 542.73 269.89 545.91 278.22 547.47 287.66 548.63 297.66 548.34 308.47 546.72 319.74 545.21 331.28 542.86 343.05 539.94 354.76 537.91 366.56 535.87 378.18 534.04 389.39 533.68 400.6 533.68 410.82 533.94 420.01 535.37 429.21 536.6 437.44 537.39 444.78 538.63 452.31 538.91 459.22 538.05 465.72 537.05 472.87 534.61 480.12 530.74 487.73 526.48 496.53 520.76 506.13 513.73 516.55 506.36 528.18 497.82 540.39 488.32 552.64 478.64 564.92 468.16 576.07 457.07 585.12 445.94 592.23 434.3 595.95 422.3 595.65 410.31 592.47 398.53 585.69 387.06 576.19 375.57 565.51 364.35 553.64 353.46 541.51 342.49 530.19 331.8 519.54 321.47 509.86 311.02 501.74 300.91 494.48 291.26 487.86 281.55 482.38 272.33 476.95 263.8 471.25 255.36 466.01 247.73 460.01 241.12 453.08 234.84 446.21 229.75 438.22 226.08 429.1 222.96 419.94 221.39 409.65 221.54 398.29 222.34 386.93 224.81 375.09 228.74 362.99 233.11 350.95 238.77 338.73 245.48 326.59 252.37 314.64 260.13 302.95 268.58 291.85 276.97 281.23 285.94 271.52 295.35 263.09 304.58 255.51 314.23 249.52 324.22 245.4 334.03 242.22 344.24 240.88 354.78 241.34 365.21 242.2 376.05 244.26 387.28 247.21 398.45 249.37 410.08 251.57 422.07 253.49" stroke-dasharray="3 7" transform="rotate(44.44, 400, 400)" opacity="0.47"></path><path d="M422.49 264.89C433.69 265.12 444.62 264.94 455.12 264.47 465.59 262.86 475.56 261.52 484.85 260.75 493.99 259.74 502.3 259.89 509.58 261.36 516.56 263.28 522.36 266.75 526.83 271.69 530.9 277.28 533.6 284.23 534.87 292.28 535.87 300.83 535.63 310.22 534.26 320.17 533.05 330.38 531.11 340.92 528.65 351.53 526.99 362.22 525.26 372.86 523.62 383.22 523.25 393.59 523.09 403.16 523.11 411.9 524.13 420.68 524.96 428.73 525.39 436.14 526.27 443.77 526.34 451.03 525.44 458.09 524.51 465.76 522.34 473.64 518.92 481.91 515.23 491.17 510.24 501.08 504.05 511.58 497.59 522.94 490.03 534.58 481.53 545.99 472.87 557.22 463.4 567.22 453.27 575.2 443.1 581.42 432.36 584.61 421.19 584.25 410.02 581.4 398.96 575.35 388.13 566.82 377.28 557.15 366.62 546.24 356.23 534.86 345.79 523.98 335.59 513.46 325.72 503.62 315.78 495.01 306.16 487.11 296.99 479.81 287.8 473.54 279.12 467.44 271.1 461.25 263.2 455.58 256.08 449.4 249.95 442.54 244.13 435.82 239.44 428.21 236.07 419.65 233.21 411.09 231.79 401.55 231.96 391.06 232.72 380.57 235.02 369.67 238.68 358.59 242.76 347.57 248.04 336.46 254.33 325.52 260.8 314.8 268.13 304.43 276.11 294.73 284.1 285.5 292.65 277.21 301.63 270.18 310.5 263.9 319.78 259.09 329.36 255.96 338.82 253.57 348.63 252.78 358.72 253.53 368.73 254.49 379.08 256.47 389.72 259.19 400.34 261.13 411.29 263.12 422.49 264.89" stroke-dasharray="2 9" transform="rotate(48.48, 400, 400)" opacity="0.51"></path><path d="M421.9 276.3C432.29 276.57 442.33 276.53 451.89 276.26 461.41 274.95 470.38 273.86 478.65 273.22 486.79 272.26 494.11 272.24 500.45 273.31 509.04 275.99 520.04 288.6 522.27 298.2 523.19 305.36 523.05 313.39 521.93 322.04 521.02 330.92 519.47 340.23 517.43 349.74 516.1 359.31 514.66 368.97 513.2 378.52 512.82 388.08 512.55 397.06 512.34 405.44 513.01 413.86 513.47 421.8 513.57 429.31 514.11 437.05 513.95 444.63 512.98 452.15 512.04 460.22 510.05 468.55 506.99 477.24 503.75 486.7 499.36 496.65 493.9 506.96 488.24 517.83 481.55 528.74 473.97 539.2 466.25 549.33 457.73 558.2 448.54 565.16 439.3 570.56 429.46 573.26 419.14 572.84 408.81 570.31 398.51 564.95 388.36 557.35 378.2 548.69 368.16 538.76 358.34 528.22 348.51 517.93 338.86 507.73 329.52 497.97 320.16 489.13 311.1 480.82 302.47 473.04 293.87 466.12 285.76 459.44 278.29 452.8 270.97 446.67 264.4 440.24 258.75 433.36 253.42 426.66 249.13 419.3 246.07 411.2 243.47 403.13 242.19 394.26 242.37 384.61 243.09 374.97 245.22 365.04 248.61 355.02 252.38 345.08 257.27 335.15 263.11 325.48 269.14 316.02 275.99 307.01 283.48 298.71 291.01 290.85 299.09 283.92 307.58 278.2 316.02 273.09 324.85 269.32 333.97 267.04 343 265.3 352.35 264.93 361.93 265.86 371.46 266.86 381.26 268.7 391.28 271.17 401.27 272.89 411.51 274.66 421.9 276.3" stroke-dasharray="10 3" transform="rotate(52.52, 400, 400)" opacity="0.54"></path><path d="M420.34 287.7C429.89 288.01 439.04 288.09 447.68 288.02 456.27 287 464.3 286.17 471.62 285.7 482.04 284.81 498.25 287.54 503.69 291.73 507.77 297.54 510.62 314.74 509.76 325.55 509.13 333.16 507.93 341.28 506.29 349.72 505.26 358.22 504.07 366.93 502.79 375.71 502.4 384.49 502.03 392.92 501.65 400.96 502.01 409.06 502.14 416.88 501.95 424.46 502.16 432.27 501.78 440.05 500.7 447.89 499.72 456.17 497.85 464.72 495.05 473.55 492.16 482.95 488.27 492.68 483.43 502.56 478.44 512.75 472.53 522.78 465.77 532.23 458.92 541.24 451.28 549.01 442.99 555 434.65 559.63 425.7 561.89 416.23 561.44 406.76 559.21 397.25 554.49 387.82 547.78 378.39 540.1 369.04 531.17 359.86 521.54 350.68 511.97 341.67 502.28 332.93 492.81 324.21 483.99 315.77 475.52 307.75 467.48 299.78 460.13 292.29 453.01 285.42 446.03 278.7 439.5 272.69 432.83 267.55 425.9 262.7 419.17 258.82 411.98 256.07 404.28 253.73 396.61 252.59 388.35 252.79 379.51 253.46 370.68 255.42 361.71 258.52 352.78 261.98 343.91 266.47 335.18 271.84 326.79 277.41 318.59 283.76 310.9 290.71 303.96 297.72 297.37 305.28 291.7 313.23 287.15 321.17 283.07 329.49 280.18 338.07 278.59 346.61 277.36 355.42 277.3 364.43 278.31 373.41 279.28 382.61 280.95 391.95 283.14 401.28 284.64 410.78 286.21 420.34 287.7" stroke-dasharray="1 5" transform="rotate(56.56, 400, 400)" opacity="0.58"></path><path d="M417.87 299.11C426.58 299.44 434.84 299.64 442.59 299.74 450.29 299 457.42 298.43 463.88 298.17 473.05 297.47 487.17 299.58 491.9 302.92 495.51 307.52 498.28 321.64 497.74 330.79 497.38 337.24 496.51 344.26 495.22 351.7 494.45 359.17 493.49 366.98 492.37 375.02 491.99 383.07 491.54 390.96 491.02 398.65 491.11 406.4 490.97 414.05 490.52 421.62 490.44 429.38 489.85 437.21 488.66 445.15 487.6 453.42 485.79 461.93 483.19 470.64 480.56 479.73 477.08 488.99 472.76 498.24 468.35 507.6 463.11 516.65 457.1 525.03 451.02 532.93 444.22 539.64 436.77 544.73 429.28 548.65 421.2 550.51 412.6 550.03 403.99 548.08 395.3 543.97 386.63 538.11 377.98 531.37 369.36 523.45 360.88 514.78 352.42 506.03 344.1 497 336.03 488.01 328 479.45 320.24 471.07 312.88 463 305.59 455.46 298.76 448.11 292.5 440.93 286.41 434.13 280.98 427.3 276.36 420.37 272 413.61 268.53 406.59 266.08 399.25 263.99 391.96 263 384.27 263.21 376.21 263.82 368.16 265.61 360.13 268.43 352.25 271.56 344.43 275.65 336.86 280.54 329.7 285.63 322.7 291.43 316.26 297.81 310.55 304.28 305.13 311.26 300.57 318.62 297.01 326 293.8 333.74 291.64 341.72 290.57 349.69 289.72 357.91 289.84 366.28 290.85 374.65 291.73 383.19 293.2 391.81 295.11 400.44 296.39 409.16 297.76 417.87 299.11" stroke-dasharray="5 2" transform="rotate(60.599999999999994, 400, 400)" opacity="0.62"></path><path d="M414.6 310.51C422.46 310.87 429.86 311.16 436.75 311.41 446.76 310.79 463.61 310.14 470.22 310.79 479.64 315.18 486.12 329.99 485.9 337.7 485.77 343.14 485.19 349.18 484.22 355.69 483.68 362.24 482.92 369.21 481.95 376.54 481.59 383.87 481.08 391.21 480.45 398.51 480.33 405.86 479.96 413.25 479.3 420.66 478.97 428.22 478.18 435.9 476.89 443.7 475.74 451.74 473.96 459.97 471.52 468.29 469.09 476.84 465.93 485.42 462.05 493.86 458.13 502.27 453.48 510.28 448.14 517.57 442.76 524.38 436.71 530.09 430.06 534.34 423.39 537.61 416.15 539.11 408.4 538.62 400.65 536.93 392.79 533.4 384.93 528.32 377.08 522.5 369.24 515.56 361.52 507.88 353.82 500.03 346.24 491.8 338.9 483.46 331.61 475.35 324.57 467.31 317.91 459.45 311.34 451.95 305.19 444.61 299.58 437.42 294.14 430.54 289.29 423.68 285.19 416.83 281.32 410.14 278.25 403.32 276.1 396.36 274.27 389.44 273.41 382.31 273.62 375 274.19 367.69 275.79 360.55 278.33 353.68 281.14 346.85 284.81 340.35 289.21 334.33 293.8 328.43 299.05 323.1 304.83 318.48 310.71 314.07 317.07 310.44 323.8 307.71 330.56 305.2 337.65 303.59 344.98 302.89 352.31 302.3 359.87 302.5 367.56 303.44 375.25 304.2 383.08 305.44 390.94 307.07 398.82 308.13 406.74 309.3 414.6 310.51" stroke-dasharray="10 4" transform="rotate(64.64, 400, 400)" opacity="0.66"></path><path d="M410.68 321.92C417.69 322.28 424.26 322.66 430.33 323.04 439.14 322.78 453.87 322.78 459.64 323.53 467.99 327.29 474.16 339.6 474.24 346.11 474.15 353.29 472.65 370.38 471.54 380.1 471.19 386.73 470.65 393.5 469.95 400.34 469.66 407.21 469.11 414.21 468.28 421.29 467.73 428.48 466.79 435.82 465.41 443.25 464.18 450.83 462.41 458.53 460.1 466.24 457.82 474.05 454.93 481.8 451.44 489.29 447.93 496.68 443.79 503.61 439.06 509.83 434.3 515.59 428.95 520.35 423.06 523.84 417.16 526.52 410.73 527.71 403.83 527.22 396.93 525.77 389.91 522.76 382.88 518.44 375.86 513.47 368.83 507.5 361.9 500.81 355 493.9 348.22 486.56 341.65 479 335.13 471.55 328.86 464.04 322.93 456.61 317.09 449.41 311.65 442.29 306.7 435.31 301.89 428.55 297.64 421.84 294.05 415.21 290.67 408.7 288 402.17 286.14 395.63 284.55 389.13 283.82 382.56 284.04 375.98 284.55 369.39 285.98 363.09 288.23 357.14 290.71 351.22 293.97 345.71 297.87 340.69 301.95 335.76 306.63 331.39 311.79 327.68 317.06 324.11 322.77 321.24 328.81 319.15 334.91 317.17 341.32 315.95 347.94 315.49 354.58 315.05 361.42 315.25 368.37 316.06 375.33 316.66 382.4 317.66 389.48 319.01 396.57 319.86 403.67 320.85 410.68 321.92" stroke-dasharray="1 1" transform="rotate(68.68, 400, 400)" opacity="0.70"></path><path d="M406.28 333.33C418.61 333.47 429.28 334.02 437.89 335.11 449.57 335.51 461.78 345.23 462.77 355.72 463.45 363.54 462.87 373.53 461.12 385.41 460.84 397.3 459.6 410.05 457.47 423.15 456.26 436.5 453.48 450.45 449.02 464.24 444.77 478.06 438.4 491.08 430.05 501.77 421.64 510.85 411.22 516 399.09 515.81 386.97 512.65 374.41 504.65 362.18 493.53 350.07 481.5 338.42 467.96 327.99 454.25 317.9 441.04 309.3 427.89 302.96 415.29 297.33 403.03 294.27 390.83 294.46 379.06 295.6 367.29 299.87 357 306.54 348.64 313.79 340.45 323.11 334.5 333.73 331.16 344.57 328 356.51 327.23 368.83 328.66 381.23 329.23 393.95 330.9 406.28 333.33" stroke-dasharray="10 2" transform="rotate(72.72, 400, 400)" opacity="0.73"></path><path d="M401.61 344.73C412.28 344.99 421.47 345.79 428.89 347.16 439.02 348.14 450.13 357.11 451.48 366.17 452.38 372.84 452.12 381.49 450.7 392 450.38 402.5 449.06 413.94 446.86 425.75 445.38 437.68 442.55 450.03 438.34 462.02 434.35 473.83 428.63 484.7 421.29 493.37 413.93 500.7 404.88 504.74 394.39 504.41 383.9 501.83 373.05 495.26 362.5 486.01 352.07 475.88 342.06 464.21 333.16 452.13 324.55 440.23 317.26 428.23 311.94 416.72 307.19 405.42 304.65 394.36 304.87 383.98 305.85 373.61 309.5 364.83 315.22 357.92 321.42 351.08 329.44 346.23 338.61 343.58 348 340.91 358.38 340.16 369.09 341.21 379.88 341.45 390.93 342.69 401.61 344.73" stroke-dasharray="5 11" transform="rotate(76.76, 400, 400)" opacity="0.77"></path><path d="M396.86 356.14C405.9 356.48 413.7 357.45 420.02 359.01 428.73 360.52 438.78 369.07 440.38 376.99 441.43 382.73 441.41 390.18 440.29 399.29 439.95 408.39 438.62 418.35 436.45 428.59 434.82 438.86 432.03 449.36 428.13 459.35 424.41 469.08 419.32 477.83 412.94 484.62 406.57 490.36 398.83 493.42 389.94 493 381.04 490.96 371.89 485.7 363.03 478.21 354.26 469.96 345.9 460.25 338.5 449.99 331.35 439.72 325.34 429.21 321 419.07 317.1 409.04 315.04 399.29 315.29 390.31 316.11 381.33 319.16 373.9 323.94 368.18 329.1 362.45 335.82 358.43 343.54 356.21 351.44 353.85 360.21 353.03 369.29 353.67 378.44 353.61 387.81 354.46 396.86 356.14" stroke-dasharray="4 9" transform="rotate(80.80000000000001, 400, 400)" opacity="0.81"></path><path d="M392.25 367.54C402.93 368.46 418.8 372.56 423.78 376.35 427.75 380.77 430.65 395.8 429.87 406.64 429.54 414.31 428.28 422.63 426.23 431.11 424.57 439.57 421.93 448.08 418.4 456.02 415.02 463.68 410.57 470.42 405.14 475.51 399.74 479.83 393.28 482.05 385.94 481.6 378.6 480.03 371.11 475.96 363.91 470.11 356.78 463.66 350.03 455.91 344.1 447.58 338.36 439.14 333.57 430.36 330.16 421.82 327.06 413.32 325.45 405.05 325.71 397.49 326.37 389.92 328.83 383.73 332.7 378.98 336.86 374.19 342.3 370.8 348.57 368.84 355 366.69 362.16 365.76 369.6 366.01 377.09 365.7 384.8 366.21 392.25 367.54" stroke-dasharray="7 7" transform="rotate(84.84, 400, 400)" opacity="0.85"></path><path d="M387.99 378.95C399.79 379.1 408.63 382.2 413.59 387.76 418.86 392.38 421.05 401.01 419.45 413.41 419.19 425.8 415.45 439.8 409.2 451.84 403.41 463 394.21 470.37 382.56 470.19 370.91 467.21 359.18 457.31 350.01 444.67 341.33 431.52 335.91 417.12 336.12 404.88 337.41 392.64 344.16 384.66 353.78 381.24 363.85 377.13 376.18 376.34 387.99 378.95" stroke-dasharray="5 8" transform="rotate(88.88, 400, 400)" opacity="0.89"></path><path d="M384.26 390.35C393.03 390.71 399.82 393.63 403.86 398.43 408.12 402.63 410.09 409.63 409.04 419 408.72 428.37 405.58 438.42 400.55 446.67 395.79 454.35 388.64 459.18 379.96 458.79 371.29 456.83 362.78 450.01 356.28 441.07 350.07 431.71 346.27 421.12 346.54 411.85 347.43 402.57 352.28 396.26 359.25 393.2 366.49 389.66 375.49 388.58 384.26 390.35" stroke-dasharray="6 9" transform="rotate(92.92, 400, 400)" opacity="0.92"></path><path d="M381.23 401.76C392.84 401.92 400.14 410.35 398.62 422.92 398.37 435.49 389.78 447.55 378.26 447.38 366.73 444.49 356.73 430.25 356.96 417.78 358.32 405.29 369.62 399.05 381.23 401.76" stroke-dasharray="9 11" transform="rotate(96.96, 400, 400)" opacity="0.96"></path></g></svg>