<svg xmlns="http://www.w3.org/2000/svg" version="1.1" xmlns:xlink="http://www.w3.org/1999/xlink" xmlns:svgjs="http://svgjs.dev/svgjs" viewBox="0 0 800 800"><defs><linearGradient x1="50%" y1="0%" x2="50%" y2="100%" id="ccchaos-grad"><stop stop-color="hsl(162, 100%, 58%)" stop-opacity="1" offset="0%"></stop><stop stop-color="hsl(270, 73%, 53%)" stop-opacity="1" offset="100%"></stop></linearGradient></defs><g stroke-width="2" stroke="url(#ccchaos-grad)" fill="none" stroke-linecap="round"><path d="M377.54 50.17C383.27 51.85 388.98 53.61 394.66 55.43 400.34 57.14 406 58.84 411.64 60.51 420.11 62.72 437.07 66.45 445.61 67.96 457.14 69.25 468.9 70.34 480.99 71.35 493.45 71.85 506.44 72.64 520.04 73.88 534.14 75.22 548.9 77.39 564.27 80.5 579.93 84.17 595.88 88.96 611.79 94.87 627.19 101.48 641.77 109.17 654.94 117.81 666.4 127 675.54 136.97 681.89 147.53 685.81 158.36 686.79 169.59 685.01 181.07 681.86 192.53 677.34 204.1 672.49 215.71 669.23 227.12 667.95 238.52 669.73 249.88 675.73 260.99 685.7 272.1 699.4 283.21 716.15 294.1 734.32 305.07 752.07 316.16 767.7 327.09 779.14 338.2 784.84 349.54 785.49 355.17 784.5 360.87 781.91 366.65 778 372.4 772.75 378.24 766.37 384.15 759.32 390.06 751.68 396.04 743.77 402.12 736.12 408.18 728.86 414.34 722.3 420.59 716.91 426.83 712.77 433.09 710.04 439.37 708.91 445.64 709.27 451.92 711.05 458.21 714.29 464.49 718.67 470.78 723.95 477.06 730.08 483.34 736.58 489.6 743.17 495.83 756.07 508.26 766.02 520.54 771.4 532.54 771.93 544.37 766.64 555.81 756.14 566.69 741.76 577.24 724.58 587.07 706.27 596.02 688.4 604.47 672.16 611.89 658.44 618.19 639.29 631.22 636.26 641.44 635.75 644.01 634.06 646.84 630.42 650.46 624.81 655.19 617.83 661.68 609.04 669.62 598.74 679.07 587.43 690.22 575.08 702.55 562.03 715.65 548.52 729.32 534.7 742.7 520.83 755.09 506.85 766.17 493.01 774.98 479.44 780.9 472.66 782.86 465.96 783.97 459.34 784.21 452.73 783.74 446.21 782.41 439.77 780.25 433.34 777.47 427 773.96 420.74 769.79 414.49 765.23 408.32 760.19 402.23 754.77 396.14 749.27 390.19 743.69 384.39 738.14 378.59 732.85 372.92 727.79 367.38 723.06 361.83 718.86 356.4 715.12 351.09 711.9 345.77 709.35 340.55 707.37 335.44 705.97 325.12 705.26 315.16 706.57 305.5 709.46 295.61 714.05 285.89 719.08 276.27 723.87 266.29 728.56 256.27 731.86 246.17 733.37 235.61 733.43 224.92 731.18 214.08 726.62 202.89 720.3 191.66 711.86 180.52 701.62 169.38 690.13 158.59 677.39 148.36 663.81 138.58 649.77 129.64 635.42 121.7 621.04 114.45 606.84 108.25 592.92 103.08 579.39 98.36 566.34 94.39 553.73 91 541.57 87.46 529.89 84.09 518.54 80.77 507.45 76.85 496.71 72.84 486.08 68.78 475.47 64.25 465.05 59.94 454.52 56.06 443.84 53.28 435.83 48.87 419.54 47.36 411.23 46.33 402.86 45.9 385.75 46.47 377.01 47.05 371.16 47.85 365.31 48.85 359.47 49.88 353.62 51.06 347.79 52.36 341.98 53.61 336.17 54.93 330.38 56.31 324.63 57.57 318.88 58.85 313.18 60.14 307.52 62.27 296.26 64.42 285.24 66.64 274.54 68.48 263.98 70.71 253.81 73.49 244.12 76.52 234.62 80.48 225.65 85.47 217.28 91.12 209.1 97.86 201.52 105.6 194.56 113.83 187.71 122.77 181.41 132.17 175.61 141.53 169.74 151 164.21 160.4 158.94 169.29 153.32 177.94 147.75 186.36 142.14 194.14 135.92 201.78 129.52 209.36 122.89 216.51 115.59 223.82 108.08 231.38 100.44 238.8 92.37 246.64 84.4 254.94 76.74 263.3 69.15 272.18 62.24 281.56 56.25 291.05 50.89 301.02 46.77 311.39 44.02 319.25 42.64 335.42 41.98 343.68 42.64 352.02 43.85 368.95 47.69 377.53 50.16" stroke-dasharray="1 3" transform="rotate(0, 400, 400)" opacity="0.05"></path><path d="M380.21 63.21C391.32 66.53 402.53 70.07 413.84 73.61 425.2 76.45 436.75 79.03 448.53 81.3 460.47 82.72 472.77 83.91 485.48 84.98 498.48 85.52 511.98 86.25 525.98 87.36 540.25 88.45 554.93 90.26 569.86 92.91 584.69 96 599.37 100.14 613.49 105.32 626.74 111.14 638.73 118.02 648.96 125.86 657.42 134.26 663.54 143.49 667.05 153.39 668.62 163.63 667.83 174.35 665.07 185.42 661.77 196.59 657.97 207.95 654.65 219.42 653.47 230.8 654.65 242.22 658.95 253.63 667.14 264.87 678.79 276.11 693.41 287.34 710.19 298.4 727.59 309.5 743.9 320.65 757.71 331.69 767.26 342.84 771.34 354.13 770.06 365.35 763.12 376.76 751.5 388.39 737.67 399.99 723 411.84 709.78 423.92 700.78 436.01 696.79 448.05 698.11 460.02 704.82 471.96 715.04 483.79 726.93 495.43 739.3 506.99 749.44 518.29 755.79 529.2 758.02 539.93 754.97 550.17 746.94 559.78 734.98 569.07 719.79 577.6 702.8 585.26 685.41 592.5 668.74 598.78 653.77 604.04 641.31 608.91 631.54 612.82 624.41 615.84 617.75 623.15 614.4 636.69 609.62 644.98 604.92 652.51 598.55 661.33 590.66 671.43 581.83 682.93 571.78 695.3 560.79 708.14 549.22 721.24 537.07 733.82 524.56 745.23 511.83 755.28 498.98 763.08 486.17 768.12 473.32 770.64 460.61 770 448.12 766.21 435.65 760.23 423.41 751.86 411.42 741.72 399.44 731.3 387.95 720.92 376.94 711.34 365.86 703.6 355.19 697.66 344.87 693.75 334.42 692.4 324.22 692.92 314.22 694.99 303.98 698.76 293.82 703.12 283.68 707.48 273.2 711.99 262.66 715.46 252.01 717.47 241.03 718.37 229.95 717.25 218.82 714.07 207.52 709.31 196.33 702.53 185.39 693.96 174.63 684.11 164.38 672.9 154.84 660.66 145.85 647.78 137.77 634.35 130.72 620.66 124.34 606.92 118.94 593.23 114.47 579.77 110.34 566.58 106.82 553.73 103.74 541.25 100.39 529.13 97.1 517.35 93.77 505.85 89.78 494.66 85.65 483.65 81.45 472.76 76.8 462.05 72.37 451.36 68.37 440.62 64.53 429.97 61.54 419.2 59.58 408.29 58.22 397.4 58.03 386.34 58.99 375.11 60.4 363.87 62.61 352.75 65.4 341.76 68 330.8 70.76 320.02 73.55 309.48 75.72 299 77.82 288.82 79.91 279 81.56 269.29 83.5 260 85.91 251.19 88.47 242.52 91.9 234.36 96.3 226.75 101.33 219.26 107.47 212.3 114.64 205.87 122.4 199.46 130.98 193.48 140.16 187.89 149.46 182.13 159.02 176.6 168.65 171.22 177.9 165.42 187.01 159.6 195.9 153.68 204.21 147.16 212.31 140.44 220.27 133.51 227.73 125.98 235.19 118.3 242.76 110.56 250.05 102.49 257.61 94.62 265.51 87.12 273.32 79.78 281.57 73.18 290.27 67.53 298.98 62.52 308.15 58.74 317.76 56.29 327.4 54.71 337.45 54.47 347.87 55.53 358.3 57.18 369.08 59.8 380.2 63.21" stroke-dasharray="3 2" transform="rotate(3.884615384615385, 400, 400)" opacity="0.09"></path><path d="M386.53 76.26C397.39 79.58 408.48 83.12 419.8 86.68 431.17 89.57 442.85 92.23 454.84 94.6 466.97 96.15 479.48 97.46 492.37 98.63 505.43 99.22 518.86 99.95 532.59 100.95 546.35 101.86 560.21 103.38 573.95 105.62 587.28 108.2 600.05 111.72 611.87 116.21 622.62 121.27 631.85 127.34 639.2 134.34 644.92 141.92 648.46 150.34 649.78 159.47 649.75 169 648.02 179.09 645.09 189.61 642.38 200.31 639.89 211.3 638.51 222.46 639.59 233.64 643.18 244.91 649.77 256.22 659.79 267.44 672.65 278.68 687.73 289.91 704.17 301.02 720.51 312.16 735.23 323.31 747.2 334.37 754.95 345.49 757.54 356.69 755.29 367.83 748.02 379.09 736.65 390.47 723.5 401.83 709.7 413.34 697.27 424.98 688.67 436.62 684.56 448.11 685.26 459.42 690.94 470.7 699.99 481.76 710.85 492.53 722.56 503.21 732.67 513.52 739.73 523.37 743.38 533.05 742.33 542.17 736.64 550.62 727.12 558.79 714.14 566.22 698.84 572.81 682.48 579.07 666.01 584.49 650.45 589.03 636.62 593.34 624.9 596.9 615.49 599.8 606.21 604.08 598.38 612.52 596.84 618 596.13 622.99 594.61 628.88 592.02 635.82 588.86 644.21 584.32 653.72 578.43 664.27 571.78 675.92 563.87 688.14 554.91 700.56 545.38 712.99 535.06 724.7 524.14 735.13 512.94 744.15 501.37 750.98 489.61 755.19 477.76 757.08 465.84 756.06 453.94 752.17 442.05 746.32 430.22 738.31 418.5 728.67 406.79 718.77 395.44 708.86 384.44 699.62 373.39 691.99 362.62 685.94 352.09 681.68 341.43 679.74 330.93 679.54 320.53 680.81 309.93 683.77 299.33 687.41 288.71 691.25 277.84 695.45 266.9 698.91 255.89 701.24 244.69 702.75 233.48 702.56 222.35 700.55 211.23 697.19 200.37 691.94 189.91 684.97 179.8 676.77 170.33 667.14 161.66 656.36 153.6 644.82 146.48 632.55 140.36 619.81 134.83 606.83 130.2 593.71 126.37 580.61 122.73 567.63 119.56 554.83 116.68 542.29 113.43 530.01 110.13 518 106.7 506.27 102.6 494.79 98.32 483.52 93.96 472.43 89.19 461.51 84.65 450.68 80.57 439.92 76.71 429.23 73.71 418.54 71.79 407.83 70.51 397.13 70.42 386.38 71.5 375.57 73.07 364.76 75.44 354.15 78.38 343.78 81.14 333.41 84.04 323.3 86.92 313.49 89.15 303.73 91.27 294.3 93.29 285.27 94.81 276.31 96.52 267.77 98.59 259.71 100.73 251.73 103.63 244.22 107.43 237.22 111.81 230.24 117.27 223.73 123.78 217.65 130.94 211.5 138.99 205.68 147.77 200.15 156.84 194.36 166.31 188.71 175.99 183.12 185.49 177.08 194.94 170.96 204.26 164.71 213.09 157.88 221.73 150.87 230.18 143.68 238.12 135.97 245.98 128.18 253.83 120.41 261.3 112.41 268.92 104.69 276.75 97.42 284.38 90.38 292.34 84.12 300.68 78.82 308.93 74.19 317.61 70.75 326.72 68.62 335.8 67.3 345.33 67.26 355.31 68.45 365.26 70.19 375.66 72.85 386.52 76.26" stroke-dasharray="3 2" transform="rotate(7.76923076923077, 400, 400)" opacity="0.12"></path><path d="M395.34 89.31C405.99 92.62 416.94 96.16 428.17 99.72 439.44 102.66 451.04 105.4 462.95 107.86 474.93 109.54 487.24 110.98 499.82 112.25 512.42 112.94 525.21 113.69 538.04 114.65 550.69 115.43 563.13 116.72 575.11 118.61 586.49 120.75 597 123.72 606.31 127.57 614.51 131.9 621.12 137.18 625.91 143.36 629.37 150.08 631 157.65 630.9 165.95 630.06 174.68 628.19 184.02 625.83 193.86 624.29 203.95 623.56 214.39 624.34 225.1 627.67 235.89 633.5 246.84 642.05 257.89 653.46 268.92 667.08 280 682.18 291.09 697.92 302.12 712.98 313.16 726.01 324.2 736.17 335.19 742.21 346.19 743.46 357.22 740.39 368.21 732.88 379.25 721.84 390.32 709.37 401.39 696.43 412.51 684.75 423.66 676.55 434.82 672.37 445.73 672.51 456.36 677.22 466.97 685.13 477.26 694.94 487.17 705.89 497 715.79 506.39 723.3 515.26 728.07 523.98 728.76 532.11 725.23 539.57 718.09 546.82 707.41 553.35 694.09 559.13 679.2 564.7 663.52 569.54 648.01 573.67 633.47 577.73 620.41 581.23 609.18 584.29 600.1 587.59 592.95 590.73 587.47 593.91 583.77 597.79 581.05 602.06 578.84 606.93 577.37 612.93 575.65 619.79 573.35 627.61 570.92 636.68 567.5 646.68 562.98 657.47 557.97 669.07 551.81 681 544.62 692.86 536.94 704.52 528.37 715.32 519.06 724.75 509.45 732.77 499.3 738.67 488.73 742.11 478.04 743.42 467.08 742.07 455.94 738.12 444.78 732.43 433.51 724.77 422.17 715.62 410.82 706.24 399.68 696.8 388.74 687.9 377.76 680.42 366.93 674.29 356.22 669.74 345.42 667.28 334.68 666.41 323.96 666.93 313.11 669.09 302.22 672 291.3 675.24 280.24 679.02 269.15 682.32 258.06 684.78 246.94 686.7 235.92 687.21 225.1 686.17 214.47 684 204.23 680.14 194.53 674.65 185.29 668.02 176.77 659.96 169.11 650.69 162.06 640.62 155.92 629.67 150.72 618.09 146 606.12 142.05 593.83 138.75 581.39 135.49 568.91 132.55 556.46 129.76 544.15 126.5 531.97 123.11 519.99 119.52 508.25 115.25 496.68 110.8 485.32 106.29 474.16 101.4 463.14 96.78 452.26 92.66 441.52 88.81 430.85 85.85 420.26 83.98 409.74 82.8 399.24 82.82 388.77 84.02 378.35 85.72 367.93 88.23 357.8 91.3 347.96 94.2 338.13 97.24 328.61 100.22 319.44 102.56 310.29 104.73 301.52 106.74 293.14 108.19 284.81 109.73 276.89 111.53 269.42 113.29 261.97 115.71 254.96 118.92 248.37 122.64 241.75 127.39 235.51 133.16 229.62 139.6 223.57 147 217.77 155.21 212.15 163.84 206.23 173.02 200.36 182.55 194.5 192.09 188.17 201.71 181.73 211.32 175.15 220.59 168.05 229.71 160.78 238.67 153.38 247.17 145.57 255.54 137.74 263.83 130 271.72 122.15 279.65 114.64 287.68 107.65 295.44 100.96 303.43 95.07 311.7 90.16 319.81 85.91 328.29 82.83 337.16 81 345.96 79.93 355.19 80.09 364.89 81.41 374.54 83.22 384.68 85.91 395.33 89.31" stroke-dasharray="4 4" transform="rotate(11.653846153846155, 400, 400)" opacity="0.16"></path><path d="M405.02 102.36C415.46 105.65 426.18 109.17 437.16 112.72 448.16 115.71 459.43 118.52 470.92 121.07 482.43 122.88 494.13 124.46 505.91 125.85 517.61 126.65 529.26 127.47 540.7 128.42 551.81 129.14 562.45 130.25 572.37 131.87 581.6 133.64 589.79 136.13 596.68 139.39 602.57 143.06 606.96 147.6 609.75 152.98 611.61 158.85 612.07 165.54 611.34 172.98 610.45 180.85 609.15 189.36 607.96 198.41 608.03 207.76 609.28 217.53 612.26 227.62 617.72 237.87 625.48 248.34 635.57 258.95 647.92 269.62 661.84 280.37 676.57 291.17 691.33 301.96 704.92 312.77 716.22 323.57 724.61 334.35 729.07 345.13 729.12 355.88 725.37 366.63 717.73 377.36 707.06 388.07 695.29 398.78 683.18 409.47 672.24 420.1 664.44 430.73 660.21 441.05 659.85 451.01 663.66 460.95 670.48 470.5 679.22 479.62 689.33 488.66 698.85 497.22 706.58 505.25 712.19 513.15 714.33 520.46 712.72 527.14 707.83 533.68 699.46 539.57 688.29 544.8 675.21 549.94 660.8 554.49 645.92 558.5 631.34 562.57 617.58 566.27 605.12 569.71 594.3 573.52 585.15 577.35 577.58 581.36 571.73 586.11 567.07 591.34 563.25 597.19 560.44 604.07 557.83 611.76 555.1 620.28 552.61 629.83 549.53 640.1 545.7 650.93 541.66 662.31 536.69 673.78 530.81 684.97 524.58 695.8 517.48 705.65 509.59 714.08 501.45 721.14 492.63 726.16 483.27 728.88 473.77 729.68 463.83 728.05 453.53 724.06 443.2 718.54 432.58 711.23 421.73 702.58 410.87 693.7 400.04 684.73 389.26 676.18 378.47 668.87 367.7 662.71 356.95 657.92 346.16 655.02 335.35 653.54 324.52 653.36 313.62 654.74 302.7 656.91 291.76 659.51 280.8 662.79 269.87 665.8 259.04 668.21 248.31 670.35 237.81 671.35 227.64 671.05 217.78 669.87 208.42 667.19 199.69 663.03 191.48 657.86 184.03 651.3 177.44 643.53 171.41 634.96 166.22 625.42 161.86 615.13 157.84 604.37 154.44 593.12 151.54 581.58 148.53 569.86 145.69 558.04 142.88 546.22 139.51 534.43 135.96 522.73 132.17 511.2 127.71 499.76 123.08 488.5 118.41 477.44 113.44 466.47 108.78 455.67 104.65 445.04 100.84 434.47 97.96 424.03 96.18 413.72 95.11 403.44 95.23 393.26 96.53 383.2 98.36 373.13 100.98 363.42 104.16 354.05 107.2 344.69 110.35 335.67 113.46 327.04 115.92 318.4 118.17 310.15 120.23 302.31 121.67 294.46 123.11 287.01 124.71 279.96 126.17 272.89 128.16 266.2 130.83 259.87 133.91 253.44 137.93 247.31 142.92 241.45 148.56 235.38 155.19 229.47 162.68 223.67 170.69 217.53 179.36 211.4 188.53 205.22 197.87 198.59 207.45 191.84 217.13 184.97 226.65 177.63 236.11 170.17 245.48 162.64 254.49 154.79 263.38 147 272.15 139.39 280.57 131.75 288.94 124.52 297.34 117.86 305.46 111.55 313.7 106.06 322.12 101.55 330.36 97.7 338.88 94.97 347.71 93.44 356.45 92.63 365.57 92.96 375.11 94.39 384.6 96.27 394.56 98.98 405.01 102.35" stroke-dasharray="0 3" transform="rotate(15.53846153846154, 400, 400)" opacity="0.20"></path><path d="M413.76 115.41C423.96 118.68 434.34 122.16 444.88 125.7 455.43 128.72 466.13 131.58 476.9 134.22 487.63 136.16 498.37 137.88 509 139.41 519.47 140.34 529.66 141.25 539.42 142.24 548.79 142.94 557.48 143.95 565.3 145.37 575.51 147.88 588.79 156.68 591.65 163.23 592.63 168.29 592.68 174.13 592.08 180.69 591.81 187.67 591.64 195.3 592.04 203.5 593.94 212.02 597.23 221 602.29 230.35 609.6 239.91 618.91 249.74 630.09 259.78 642.91 269.92 656.71 280.19 670.71 290.54 684.24 300.93 696.26 311.36 705.81 321.78 712.52 332.22 715.53 342.65 714.54 353.04 710.24 363.43 702.57 373.77 692.33 384.05 681.25 394.33 669.95 404.53 659.72 414.62 652.32 424.71 648.07 434.43 647.27 443.75 650.26 453.05 656.04 461.93 663.73 470.34 672.93 478.69 681.93 486.55 689.65 493.88 695.83 501.13 699.12 507.82 699.18 513.94 696.32 519.99 690.19 525.48 681.23 530.44 670.18 535.39 657.41 539.9 643.67 544.02 629.65 548.33 615.86 552.42 602.79 556.41 590.83 560.86 580.16 565.44 570.83 570.3 563.01 575.91 556.41 582.01 550.8 588.72 546.32 596.35 542.37 604.68 538.64 613.68 535.44 623.51 532.03 633.85 528.21 644.53 524.45 655.52 520.04 666.41 514.91 676.85 509.61 686.79 503.55 695.67 496.74 703.12 489.75 709.25 482.07 713.45 473.77 715.52 465.35 715.85 456.38 713.98 446.94 709.99 437.46 704.65 427.55 697.71 417.27 689.53 406.99 681.15 396.6 672.64 386.14 664.46 375.69 657.34 365.16 651.2 354.58 646.24 344 642.95 333.36 640.93 322.69 640.09 312.04 640.74 301.37 642.17 290.75 644.11 280.21 646.81 269.77 649.42 259.55 651.66 249.53 653.82 239.83 655.11 230.58 655.35 221.71 654.93 213.41 653.22 205.81 650.2 198.7 646.32 192.35 641.15 186.82 634.81 181.74 627.7 177.4 619.59 173.76 610.66 170.3 601.22 167.3 591.17 164.64 580.7 161.73 569.97 158.87 558.99 155.93 547.89 152.39 536.73 148.61 525.56 144.58 514.46 139.92 503.39 135.12 492.43 130.33 481.63 125.3 470.89 120.63 460.31 116.55 449.89 112.83 439.53 110.05 429.31 108.37 419.26 107.42 409.24 107.66 399.35 109.05 389.63 110.97 379.92 113.69 370.57 116.96 361.62 120.1 352.65 123.38 344.05 126.61 335.84 129.21 327.62 131.58 319.77 133.72 312.31 135.21 304.81 136.63 297.68 138.1 290.91 139.34 284.06 140.98 277.54 143.17 271.31 145.66 264.94 148.97 258.79 153.19 252.84 158 246.64 163.77 240.54 170.43 234.49 177.66 228.1 185.63 221.67 194.22 215.18 203.11 208.27 212.38 201.26 221.9 194.14 231.41 186.63 241 179.06 250.57 171.49 259.93 163.69 269.22 156.02 278.41 148.6 287.31 141.24 296.15 134.34 304.96 128.06 313.51 122.17 322.11 117.11 330.81 113.02 339.33 109.56 348.03 107.19 356.95 105.95 365.77 105.38 374.89 105.88 384.35 107.41 393.76 109.35 403.55 112.06 413.75 115.4" stroke-dasharray="0 4" transform="rotate(19.423076923076923, 400, 400)" opacity="0.23"></path><path d="M419.96 128.45C429.83 131.69 439.76 135.13 449.7 138.65 459.63 141.68 469.55 144.6 479.38 147.31 489.13 149.38 498.7 151.23 507.97 152.9 517.04 153.98 525.66 155.02 533.69 156.08 544.76 157.29 561.75 161.19 567.24 164.4 570.94 168.59 573.74 180.97 574.06 189.19 574.91 195.28 576.23 202.02 578.44 209.32 582.22 216.95 587.44 225.07 594.32 233.6 603.12 242.36 613.53 251.44 625.31 260.77 638.17 270.24 651.45 279.89 664.44 289.65 676.57 299.49 686.94 309.4 694.78 319.32 699.91 329.29 701.62 339.25 699.75 349.16 695.03 359.09 687.42 368.97 677.63 378.75 667.26 388.53 656.74 398.22 647.21 407.75 640.2 417.28 635.97 426.43 634.78 435.15 637.01 443.86 641.81 452.14 648.46 459.95 656.72 467.73 665.07 475.03 672.59 481.83 681.16 491.73 681.58 509.06 672.76 516.62 663.85 521.61 652.98 526.28 640.77 530.71 627.84 535.4 614.6 540.01 601.56 544.65 589.11 549.77 577.5 555.12 566.91 560.8 557.51 567.17 549.2 574.04 541.88 581.45 535.66 589.65 530.14 598.41 525.1 607.69 520.74 617.58 516.48 627.8 512.13 638.15 508.04 648.63 503.58 658.82 498.65 668.43 493.73 677.44 488.21 685.36 482.06 691.87 475.83 697.11 468.97 700.55 461.49 702.02 453.94 701.95 445.81 699.89 437.15 695.92 428.45 690.78 419.26 684.19 409.62 676.48 399.98 668.59 390.15 660.54 380.17 652.73 370.21 645.83 360.12 639.74 349.95 634.66 339.81 631.05 329.62 628.57 319.41 627.14 309.28 627.09 299.19 627.82 289.2 629.08 279.38 631.16 269.74 633.29 260.4 635.22 251.34 637.26 242.68 638.65 234.54 639.22 226.79 639.34 219.65 638.38 213.2 636.3 207.19 633.52 201.89 629.57 197.32 624.53 193.07 618.79 189.43 612.07 186.33 604.5 183.25 596.41 180.49 587.64 177.91 578.35 174.97 568.75 171.97 558.79 168.81 548.6 165.03 538.27 160.99 527.82 156.71 517.36 151.86 506.86 146.91 496.4 142.03 486.04 137 475.7 132.37 465.47 128.36 455.4 124.76 445.35 122.12 435.45 120.57 425.72 119.75 416 120.09 406.44 121.56 397.06 123.57 387.67 126.36 378.68 129.69 370.07 132.93 361.44 136.31 353.18 139.65 345.3 142.4 337.39 144.92 329.83 147.18 322.62 148.77 315.36 150.23 308.41 151.66 301.77 152.76 295.04 154.14 288.55 155.95 282.3 157.91 275.88 160.59 269.63 164.06 263.49 168.04 257.11 172.93 250.77 178.68 244.44 185.01 237.79 192.14 231.08 199.95 224.3 208.16 217.17 216.88 209.95 225.96 202.67 235.2 195.08 244.62 187.49 254.15 179.95 263.61 172.29 273.07 164.83 282.49 157.68 291.72 150.66 300.91 144.16 310.05 138.3 318.99 132.86 327.93 128.24 336.9 124.57 345.72 121.51 354.63 119.49 363.67 118.53 372.63 118.19 381.77 118.85 391.14 120.46 400.48 122.44 410.08 125.15 419.95 128.45" stroke-dasharray="4 1" transform="rotate(23.30769230769231, 400, 400)" opacity="0.27"></path><path d="M422.47 141.5C431.93 144.69 441.29 148.09 450.51 151.56 459.71 154.61 468.73 157.55 477.49 160.34 486.17 162.51 494.51 164.5 502.41 166.31 510.1 167.56 517.23 168.73 523.69 169.9 538.97 172.97 552.46 181.02 554.25 185.72 556.1 191.48 561.83 206.71 567.36 216.06 572.9 222.78 579.79 230 588.12 237.65 597.96 245.54 609 253.79 620.93 262.32 633.42 271.01 645.85 279.92 657.59 288.99 668.21 298.15 676.92 307.42 683.13 316.73 686.8 326.1 687.37 335.49 684.77 344.84 679.76 354.22 672.28 363.55 662.99 372.79 653.31 382.03 643.56 391.17 634.69 400.14 628.07 409.12 623.89 417.71 622.37 425.9 623.91 434.08 627.79 441.84 633.44 449.17 640.73 456.48 648.36 463.36 655.51 469.81 664.44 479.26 668.66 496.22 662.81 503.91 656.02 509.08 647.19 514.07 636.78 518.93 625.34 524.09 613.17 529.28 600.74 534.59 588.43 540.38 576.51 546.43 565.24 552.83 554.78 559.85 545.19 567.32 536.46 575.24 528.68 583.8 521.64 592.79 515.2 602.14 509.47 611.91 504.07 621.82 498.82 631.69 493.96 641.52 488.99 650.93 483.8 659.67 478.74 667.75 473.3 674.71 467.4 680.31 461.51 684.72 455.11 687.46 448.18 688.4 441.21 687.97 433.72 685.76 425.72 681.84 417.69 676.91 409.17 670.69 400.19 663.43 391.21 656.02 382.02 648.42 372.65 640.99 363.32 634.34 353.86 628.34 344.32 623.19 334.84 619.33 325.33 616.44 315.86 614.49 306.5 613.81 297.24 613.86 288.16 614.46 279.29 615.89 270.67 617.49 262.42 619.02 254.47 620.8 246.97 622.12 240.01 622.83 230.42 623.07 214.87 618.15 208.9 612.78 205.29 608.27 202.15 602.84 199.41 596.56 196.53 589.79 193.83 582.31 191.18 574.25 188.08 565.85 184.85 557.01 181.41 547.85 177.35 538.5 173.04 528.94 168.52 519.26 163.5 509.51 158.45 499.72 153.52 489.95 148.53 480.16 143.99 470.43 140.1 460.81 136.66 451.2 134.18 441.7 132.77 432.34 132.09 423 132.53 413.8 134.08 404.76 136.15 395.72 138.98 387.05 142.36 378.73 145.67 370.41 149.14 362.43 152.59 354.78 155.49 347.11 158.16 339.74 160.57 332.68 162.31 325.56 163.87 318.7 165.33 312.09 166.38 305.37 167.6 298.84 169.12 292.48 170.67 285.95 172.8 279.52 175.6 273.17 178.8 266.57 182.82 259.99 187.65 253.4 193.02 246.51 199.2 239.57 206.09 232.57 213.44 225.28 221.37 217.94 229.78 210.59 238.45 203.01 247.43 195.49 256.62 188.1 265.87 180.66 275.22 173.49 284.61 166.68 293.93 160.07 303.24 154 312.51 148.6 321.68 143.63 330.82 139.47 339.94 136.22 348.96 133.56 358.01 131.87 367.1 131.18 376.13 131.06 385.25 131.86 394.47 133.55 403.67 135.56 413 138.25 422.46 141.5" stroke-dasharray="3 2" transform="rotate(27.19230769230769, 400, 400)" opacity="0.31"></path><path d="M420.83 154.55C429.78 157.68 438.49 161.01 446.93 164.44 455.35 167.48 463.45 170.45 471.17 173.29 478.81 175.57 485.99 177.68 492.66 179.63 502.1 181.71 517.43 185.09 523.16 186.8 531.28 191.22 540.6 202.76 544.62 208.76 548.44 213.22 553.11 218.25 558.8 223.82 565.83 229.65 574.02 235.98 583.35 242.75 593.78 249.74 604.99 257.11 616.63 264.79 628.39 272.63 639.72 280.73 650.05 289.02 659.09 297.42 666.18 305.96 670.85 314.58 673.22 323.26 672.81 331.99 669.63 340.72 664.44 349.48 657.17 358.21 648.4 366.86 639.4 375.52 630.4 384.09 622.18 392.52 615.95 400.95 611.83 409.03 610.04 416.75 610.96 424.45 613.99 431.79 618.68 438.75 625 445.7 631.82 452.29 638.47 458.52 644.89 464.77 649.94 470.69 653.21 476.31 654.88 482.02 654.26 487.49 651.35 492.77 646.59 498.23 639.8 503.6 631.33 508.95 621.65 514.61 610.94 520.37 599.61 526.3 588.02 532.68 576.41 539.33 565.06 546.31 554.15 553.81 543.81 561.68 534.13 569.92 525.17 578.64 516.87 587.65 509.18 596.87 502.14 606.33 495.53 615.78 489.23 625.04 483.38 634.13 477.62 642.7 471.85 650.53 466.29 657.67 460.56 663.71 454.57 668.45 448.65 672.09 442.38 674.19 435.73 674.66 429.08 673.93 422 671.61 414.51 667.77 407 663.06 399.07 657.19 390.73 650.38 382.39 643.44 373.87 636.29 365.22 629.25 356.6 622.86 347.89 616.99 339.16 611.83 330.49 607.77 321.85 604.55 313.3 602.15 304.89 600.89 296.64 600.31 288.63 600.28 280.83 601.06 273.35 602.08 266.27 603.14 256.3 605.12 239.32 606.91 232.44 606.01 226.43 603.73 216.8 594.11 212.77 586.85 209.92 581.31 207.12 575.06 204.27 568.21 200.92 561.02 197.39 553.34 193.63 545.26 189.28 536.97 184.71 528.4 179.98 519.63 174.85 510.74 169.74 501.74 164.82 492.68 159.92 483.58 155.51 474.47 151.79 465.4 148.54 456.33 146.23 447.31 144.98 438.4 144.44 429.49 144.99 420.69 146.59 412.01 148.71 403.33 151.57 394.97 154.96 386.93 158.33 378.88 161.86 371.13 165.4 363.67 168.44 356.17 171.28 348.94 173.86 341.96 175.78 334.9 177.49 328.06 179.04 321.42 180.13 314.65 181.29 308.03 182.63 301.52 183.88 294.85 185.58 288.24 187.81 281.67 190.32 274.88 193.54 268.09 197.49 261.28 201.91 254.22 207.09 247.12 212.98 239.99 219.34 232.64 226.33 225.28 233.85 217.96 241.71 210.5 249.98 203.16 258.55 196 267.3 188.88 276.24 182.06 285.3 175.67 294.4 169.51 303.55 163.92 312.7 159 321.82 154.51 330.94 150.82 340.01 148 349.05 145.72 358.07 144.35 367.06 143.92 376.02 143.99 384.99 144.92 393.95 146.67 402.9 148.7 411.87 151.36 420.82 154.55" stroke-dasharray="3 4" transform="rotate(31.07692307692308, 400, 400)" opacity="0.34"></path><path d="M415.33 167.6C423.7 170.65 431.74 173.92 439.42 177.29 447.06 180.31 454.31 183.29 461.11 186.16 467.84 188.53 474.08 190.77 479.78 192.85 487.88 195.17 501.02 198.96 506.11 200.75 514.67 204.84 527.88 214.74 534.08 219.84 539.38 223.6 545.51 227.89 552.57 232.67 560.71 237.68 569.77 243.16 579.63 249.06 590.18 255.17 601.13 261.66 612.1 268.48 622.85 275.45 632.88 282.7 641.71 290.18 649.17 297.76 654.71 305.51 657.98 313.39 659.2 321.33 657.97 329.35 654.35 337.41 649.09 345.5 642.09 353.59 633.87 361.64 625.55 369.7 617.26 377.71 609.66 385.61 603.82 393.51 599.79 401.12 597.78 408.41 598.15 415.71 600.4 422.7 604.19 429.38 609.55 436.07 615.53 442.47 621.56 448.59 627.65 454.76 632.78 460.69 636.54 466.42 639.11 472.25 639.77 477.94 638.45 483.53 635.51 489.31 630.68 495.09 624.16 500.92 616.39 507.04 607.39 513.3 597.52 519.75 587.11 526.59 576.34 533.69 565.48 541.07 554.73 548.87 544.24 556.95 534.15 565.29 524.51 573.96 515.39 582.8 506.78 591.69 498.69 600.69 491.05 609.55 483.78 618.1 476.93 626.38 470.3 634.07 463.82 640.98 457.59 647.2 451.36 652.36 445.04 656.29 438.85 659.22 432.47 660.75 425.87 660.81 419.3 659.83 412.46 657.44 405.32 653.7 398.17 649.22 390.72 643.7 382.98 637.33 375.23 630.85 367.38 624.15 359.48 617.49 351.6 611.38 343.71 605.68 335.86 600.55 328.08 596.36 320.39 592.87 312.87 590.1 305.46 588.33 298.28 587.18 291.39 586.55 281.5 586.92 264 589.06 256.56 589.99 244.44 589.55 230.2 581.26 226.17 575.5 223.18 571.04 220.15 565.92 217 560.18 213.34 554.15 209.47 547.59 205.38 540.6 200.77 533.4 195.98 525.85 191.08 518.03 185.89 510.09 180.79 501.95 175.94 493.68 171.18 485.35 166.95 476.95 163.43 468.51 160.4 460.06 158.3 451.61 157.22 443.2 156.82 434.78 157.46 426.41 159.11 418.12 161.26 409.82 164.12 401.78 167.51 394.01 170.89 386.22 174.47 378.68 178.08 371.37 181.25 364.03 184.24 356.89 187 349.95 189.13 342.94 191.03 336.09 192.73 329.38 193.94 322.56 195.13 315.84 196.4 309.19 197.48 302.39 198.87 295.63 200.67 288.89 202.62 281.96 205.15 275.02 208.31 268.07 211.82 260.93 216.04 253.78 220.93 246.63 226.24 239.32 232.19 232.05 238.7 224.88 245.58 217.64 252.93 210.57 260.65 203.74 268.62 197.01 276.87 190.63 285.31 184.7 293.88 179.04 302.56 173.95 311.31 169.53 320.1 165.54 328.91 162.31 337.69 159.9 346.49 157.99 355.26 156.93 363.96 156.74 372.67 156.99 381.32 158.03 389.88 159.82 398.46 161.86 406.95 164.48 415.32 167.6" stroke-dasharray="4 3" transform="rotate(34.96153846153846, 400, 400)" opacity="0.38"></path><path d="M407 180.65C414.75 183.62 422.13 186.81 429.11 190.1 436.06 193.09 442.59 196.06 448.67 198.95 457.48 202.57 472.63 208.5 478.98 210.92 490.04 214.58 505.38 220.87 511.15 223.88 515.72 226.06 520.8 228.67 526.48 231.71 533.02 234.89 540.29 238.53 548.31 242.62 557.13 246.88 566.57 251.59 576.49 256.69 586.75 261.97 597.05 267.62 607.06 273.6 616.58 279.72 625.19 286.13 632.48 292.79 638.42 299.55 642.52 306.51 644.54 313.62 644.78 320.8 642.89 328.09 638.96 335.46 633.72 342.86 627.05 350.3 619.39 357.75 611.74 365.21 604.14 372.66 597.15 380.06 591.68 387.46 587.77 394.63 585.58 401.57 585.48 408.5 587.03 415.2 589.97 421.67 594.41 428.16 599.52 434.45 604.86 440.54 610.47 446.69 615.46 452.69 619.44 458.56 622.61 464.55 624.24 470.48 624.21 476.38 622.85 482.48 619.78 488.62 615.12 494.84 609.25 501.33 602.09 507.98 593.91 514.81 585 521.95 575.49 529.32 565.61 536.9 555.56 544.79 545.48 552.88 535.54 561.12 525.8 569.55 516.36 578.03 507.29 586.45 498.57 594.85 490.23 603.01 482.24 610.77 474.6 618.2 467.24 624.99 460.1 630.99 453.2 636.33 446.43 640.66 439.71 643.83 433.14 646.12 426.53 647.15 419.85 646.86 413.22 645.68 406.47 643.25 399.56 639.63 392.67 635.38 385.6 630.22 378.37 624.29 371.13 618.25 363.91 611.99 356.73 605.72 349.57 599.91 342.48 594.41 335.52 589.35 328.61 585.09 321.86 581.41 315.33 578.33 305.82 575.3 288.49 572.78 280.85 572.73 267.84 573.85 252.21 572.79 247.99 570.52 243.6 567.26 234.38 557.08 229.2 550.26 225.2 545.27 221 539.76 216.6 533.79 211.77 527.63 206.81 521.09 201.83 514.22 196.63 507.23 191.61 499.99 186.89 492.55 182.33 485.05 178.33 477.39 175.04 469.64 172.26 461.87 170.37 454.03 169.47 446.16 169.21 438.28 169.94 430.39 171.62 422.5 173.78 414.61 176.63 406.92 179.99 399.42 183.37 391.91 186.97 384.58 190.63 377.42 193.9 370.23 197.04 363.19 199.96 356.3 202.31 349.34 204.42 342.48 206.33 335.73 207.72 328.88 209.02 322.08 210.32 315.34 211.36 308.47 212.58 301.62 214.09 294.79 215.62 287.8 217.61 280.82 220.1 273.84 222.84 266.72 226.19 259.62 230.13 252.57 234.42 245.42 239.33 238.36 244.78 231.44 250.58 224.53 256.88 217.82 263.6 211.41 270.6 205.13 277.93 199.25 285.52 193.82 293.3 188.7 301.26 184.14 309.33 180.23 317.5 176.73 325.74 173.95 333.99 171.94 342.29 170.39 350.57 169.62 358.79 169.64 367.03 170.06 375.2 171.19 383.24 173.01 391.3 175.04 399.23 177.61 406.99 180.64" stroke-dasharray="2 5" transform="rotate(38.84615384615385, 400, 400)" opacity="0.42"></path><path d="M397.37 193.7C404.51 196.58 411.28 199.67 417.67 202.88 424.04 205.82 430.03 208.77 435.61 211.66 443.75 215.38 458.12 221.68 464.46 224.33 470.65 226.4 482.48 230.37 488.58 232.52 493.08 233.89 497.83 235.52 502.93 237.45 508.63 239.36 514.83 241.63 521.58 244.27 529 246.98 536.99 250.1 545.52 253.6 554.55 257.23 563.93 261.25 573.48 265.65 583.07 270.17 592.42 275.06 601.24 280.27 609.41 285.59 616.54 291.21 622.33 297.09 626.83 303.05 629.63 309.24 630.57 315.61 629.99 322.03 627.6 328.61 623.49 335.3 618.36 342.02 612.07 348.83 604.98 355.7 597.98 362.57 591.05 369.48 584.63 376.41 579.55 383.33 575.77 390.11 573.45 396.71 572.95 403.32 573.87 409.78 576.03 416.09 579.58 422.41 583.84 428.62 588.42 434.71 593.45 440.85 598.11 446.93 602.09 452.95 605.56 459.08 607.85 465.22 608.81 471.37 608.72 477.7 607.16 484.11 604.17 490.61 600.09 497.34 594.75 504.22 588.32 511.25 581.12 518.52 573.13 525.96 564.58 533.54 555.67 541.33 546.48 549.23 537.2 557.17 527.89 565.19 518.68 573.16 509.65 580.98 500.8 588.67 492.2 596.05 483.88 602.97 475.79 609.52 467.97 615.43 460.39 620.55 453.01 625.05 445.81 628.6 438.77 631.09 431.85 632.81 425.01 633.39 418.23 632.82 411.5 631.48 404.78 629.04 398.04 625.56 391.32 621.56 384.56 616.74 377.76 611.24 370.96 605.64 364.29 599.81 357.75 593.94 351.23 588.44 344.87 583.16 338.7 578.22 332.56 573.95 326.65 570.14 321 566.82 312.76 563.23 297.94 559.19 291.43 558.34 280.09 558.25 265.65 556.79 261.32 554.95 256.64 552.4 246.45 544.24 240.71 538.65 236.39 534.55 231.9 529.96 227.26 524.91 222.26 519.7 217.22 514.09 212.22 508.13 207.11 502.06 202.23 495.69 197.71 489.07 193.4 482.39 189.67 475.51 186.65 468.46 184.13 461.39 182.47 454.19 181.74 446.89 181.62 439.58 182.43 432.19 184.14 424.75 186.3 417.3 189.1 409.97 192.41 402.77 195.77 395.56 199.35 388.46 203.03 381.48 206.38 374.48 209.64 367.57 212.72 360.75 215.28 353.87 217.62 347.07 219.75 340.32 221.37 333.5 222.86 326.71 224.29 319.95 225.39 313.09 226.58 306.25 227.94 299.42 229.21 292.49 230.82 285.57 232.82 278.68 234.94 271.71 237.56 264.79 240.68 257.95 244.06 251.08 247.99 244.34 252.42 237.78 257.16 231.28 262.38 225.03 268.04 219.1 273.95 213.34 280.25 207.99 286.84 203.12 293.64 198.54 300.67 194.52 307.88 191.12 315.21 188.1 322.66 185.76 330.17 184.13 337.75 182.92 345.35 182.41 352.91 182.63 360.51 183.19 368.05 184.4 375.47 186.24 382.92 188.25 390.23 190.76 397.36 193.69" stroke-dasharray="1 4" transform="rotate(42.73076923076923, 400, 400)" opacity="0.45"></path><path d="M388.23 206.74C394.77 209.53 401.01 212.51 406.94 215.62 412.86 218.5 418.47 221.41 423.78 224.29 431.6 228.07 445.97 234.69 452.7 237.56 459.5 239.88 473.35 244.24 480.77 246.47 486.17 247.85 491.88 249.43 497.94 251.24 504.49 253 511.47 255.04 518.89 257.38 526.77 259.74 535.03 262.45 543.6 265.49 552.41 268.59 561.32 272.05 570.13 275.85 578.76 279.74 586.94 283.96 594.43 288.49 601.18 293.1 606.86 298 611.23 303.17 615.26 311.13 613.52 328.21 607.97 337.21 603.03 343.28 597.14 349.49 590.63 355.8 584.27 362.11 577.97 368.52 572.12 375 567.4 381.48 563.78 387.87 561.38 394.18 560.53 400.49 560.91 406.72 562.37 412.87 565.1 419.04 568.51 425.16 572.32 431.24 576.67 437.37 580.87 443.48 584.64 449.6 588.17 455.81 590.83 462.07 592.45 468.37 593.32 474.82 592.97 481.36 591.38 488 588.89 494.81 585.23 501.74 580.51 508.78 575.03 515.99 568.7 523.31 561.68 530.69 554.19 538.2 546.26 545.72 538.03 553.2 529.62 560.68 521.1 568.01 512.59 575.11 504.1 582.04 495.72 588.58 487.5 594.64 479.4 600.32 471.49 605.36 463.79 609.64 456.22 613.35 448.84 616.19 441.64 618.08 434.55 619.29 427.59 619.5 420.77 618.68 414.01 617.23 407.34 614.82 400.76 611.51 394.19 607.75 387.69 603.28 381.26 598.19 374.83 593.02 368.62 587.62 362.62 582.15 356.63 576.97 350.87 571.94 345.35 567.15 339.85 562.92 334.61 559.05 329.65 555.57 322.37 551.53 309.34 546.16 303.58 544.55 293.1 543.18 278.79 540.82 274.11 539.16 268.97 537.01 257.7 530.29 251.44 525.67 246.85 522.29 242.13 518.45 237.32 514.19 232.27 509.8 227.23 505.01 222.31 499.87 217.36 494.64 212.69 489.08 208.42 483.24 204.41 477.35 200.99 471.21 198.26 464.86 196.02 458.48 194.6 451.92 194.05 445.2 194.06 438.48 194.94 431.62 196.65 424.64 198.79 417.66 201.54 410.73 204.77 403.86 208.07 396.99 211.62 390.17 215.28 383.41 218.68 376.64 222.03 369.91 225.24 363.23 228 356.51 230.56 349.82 232.92 343.17 234.8 336.46 236.53 329.76 238.15 323.09 239.41 316.36 240.68 309.63 242.04 302.93 243.22 296.18 244.62 289.45 246.29 282.78 247.98 276.08 250.05 269.46 252.53 262.95 255.16 256.47 258.25 250.15 261.79 244.04 265.55 238.03 269.76 232.31 274.39 226.92 279.24 221.73 284.47 216.94 290.02 212.63 295.76 208.61 301.78 205.13 308.01 202.23 314.37 199.68 320.9 197.76 327.54 196.49 334.26 195.58 341.04 195.32 347.83 195.71 354.67 196.39 361.49 197.66 368.24 199.49 375.01 201.48 381.68 203.91 388.22 206.74" stroke-dasharray="2 1" transform="rotate(46.61538461538462, 400, 400)" opacity="0.49"></path><path d="M381.27 219.79C387.27 222.47 393.06 225.33 398.64 228.33 404.23 231.13 409.61 233.97 414.79 236.82 422.52 240.63 437.38 247.51 444.69 250.57 452.22 253.14 468.01 257.93 476.55 260.31 489.04 263.05 502.78 266.51 517.74 270.86 533.73 275.11 550.19 280.54 566.03 287.15 573.49 290.51 580.37 294.18 586.47 298.13 593.97 304.28 601.59 317.97 601.23 325.44 599.52 330.52 596.55 335.8 592.42 341.27 587.73 346.74 582.29 352.39 576.35 358.18 570.6 363.97 564.92 369.9 559.6 375.96 555.26 382.02 551.81 388.05 549.37 394.06 548.24 400.08 548.14 406.08 548.98 412.06 550.95 418.06 553.56 424.06 556.61 430.07 560.24 436.13 563.87 442.21 567.27 448.33 570.64 454.53 573.4 460.79 575.4 467.12 576.9 473.55 577.43 480.07 576.95 486.67 573.83 500.2 566.71 514.08 556.38 528.04 544.06 542.15 529.87 555.91 514.81 568.72 507.1 574.82 499.36 580.52 491.66 585.72 483.96 590.55 476.36 594.76 468.9 598.26 461.49 601.26 454.24 603.46 447.15 604.8 440.12 605.58 433.25 605.47 426.53 604.48 419.86 602.95 413.33 600.6 406.94 597.46 400.57 593.96 394.33 589.83 388.23 585.14 382.12 580.39 376.28 575.41 370.72 570.33 365.15 565.49 359.84 560.73 354.81 556.14 347.38 550.06 333.87 540.17 327.77 536.41 321.88 533.7 311.15 529.92 306.19 528.54 299.24 527.52 292.59 525.95 285.97 523.45 278.17 521.03 269.97 517.14 261.32 511.7 256.54 508.86 251.69 505.62 246.83 501.98 241.81 498.26 236.88 494.17 232.12 489.73 227.41 485.22 223.03 480.38 219.07 475.25 215.4 470.07 212.31 464.62 209.89 458.93 207.94 453.22 206.76 447.28 206.38 441.15 206.52 435.01 207.46 428.68 209.17 422.19 211.27 415.7 213.94 409.2 217.07 402.71 220.29 396.21 223.76 389.73 227.38 383.25 230.79 376.77 234.19 370.3 237.5 363.84 240.43 357.36 243.19 350.88 245.78 344.42 247.92 337.93 249.91 331.44 251.78 324.97 253.27 318.47 254.72 311.99 256.18 305.55 258.46 292.63 261.45 279.94 265.5 267.76 269.76 255.84 275.58 244.77 282.89 234.97 288.89 228.27 302.81 217.48 310.57 213.59 318.72 210.72 336 208.37 344.95 208.88 350.98 209.67 357.05 210.98 363.12 212.79 369.2 214.73 375.25 217.07 381.26 219.79" stroke-dasharray="4 4" transform="rotate(50.5, 400, 400)" opacity="0.53"></path><path d="M377.76 232.84C388.81 237.86 399.47 243.47 409.74 249.26 420.15 254.07 430.44 258.79 440.82 263.35 451.74 266.79 463.21 270.27 475.42 273.92 488.56 276.85 502.61 280.33 517.33 284.51 532.39 288.45 547.22 293.36 560.79 299.28 572.66 305.23 581.51 312.27 586.26 320.3 587.55 328.42 584.29 337.48 576.88 347.35 567.87 357.25 557.35 367.9 547.08 379.21 540.1 390.51 536.31 401.96 535.87 413.47 539.35 425.07 544.56 436.87 550.12 448.82 556.16 461.01 560.09 473.51 561.14 486.21 560.18 499.17 555.79 512.29 548.4 525.27 539.15 538.16 527.78 550.48 515.11 561.68 501.73 571.97 487.88 580.41 474.1 586.42 460.31 590.66 446.86 591.99 433.99 590.2 421.21 586.7 408.96 580.53 397.37 572.09 385.77 563.42 375.29 554.2 365.88 545.17 356.38 537.57 347.87 530.81 340.28 525.04 332.41 521.05 325.22 517.74 318.53 514.82 311.18 513.01 303.92 510.89 296.56 508.14 288.15 505.67 279.38 502.07 270.33 497.22 260.48 492.21 250.77 485.83 241.72 478.14 233.11 470.26 226.17 461.16 221.57 451.01 218.71 440.78 218.72 429.61 221.68 417.63 226.04 405.66 232.2 393.48 239.33 381.24 245.88 369 252.32 356.66 258.26 344.36 262.65 332.01 266.54 319.69 270.15 307.56 272.71 295.49 275.65 283.73 279.29 272.59 282.8 261.8 287.51 251.93 293.47 243.34 299.77 235.56 307.36 229.41 316.03 225.22 325.02 222.11 334.86 221.07 345.28 222.15 355.81 224.04 366.71 227.67 377.75 232.84" stroke-dasharray="2 3" transform="rotate(54.38461538461538, 400, 400)" opacity="0.56"></path><path d="M378.37 245.89C388.58 250.66 398.8 256.01 409.01 261.61 419.36 266.39 429.93 271.17 440.81 275.85 452.12 279.57 464.03 283.33 476.54 287.21 489.57 290.39 503.14 293.98 516.82 298.12 530.32 301.93 543.06 306.52 554.15 311.96 563.44 317.32 569.8 323.63 572.49 330.84 572.38 338.07 568.52 346.21 561.35 355.17 553.14 364.14 543.75 373.91 534.57 384.43 528.12 394.95 524.22 405.75 523.02 416.73 525.19 427.77 528.98 439.09 533.35 450.6 538.6 462.25 542.49 474.16 544.31 486.16 544.84 498.25 542.59 510.33 537.71 522.08 531.28 533.58 522.7 544.34 512.6 553.91 501.67 562.56 489.89 569.45 477.8 574.11 465.51 577.28 453.25 577.92 441.34 575.86 429.44 572.45 417.94 566.73 406.99 559.05 396.04 551.16 386.09 542.69 377.08 534.24 367.96 526.9 359.64 520.13 352.03 514.1 344.09 509.55 336.6 505.55 329.4 501.94 321.56 499.36 313.68 496.64 305.66 493.51 296.81 490.79 287.71 487.23 278.53 482.69 268.89 478.15 259.61 472.47 251.18 465.65 243.36 458.71 237.22 450.66 233.3 441.58 230.98 432.45 231.25 422.35 234.2 411.4 238.4 400.44 244.27 389.19 251.13 377.79 257.6 366.41 264.12 354.89 270.31 343.38 275.19 331.9 279.63 320.47 283.73 309.3 286.75 298.26 289.91 287.63 293.49 277.66 296.68 268.11 300.74 259.49 305.78 252.13 310.91 245.53 317.15 240.44 324.41 237.13 331.84 234.75 340.18 234.19 349.26 235.51 358.4 237.47 368.15 240.99 378.36 245.88" stroke-dasharray="4 1" transform="rotate(58.26923076923077, 400, 400)" opacity="0.60"></path><path d="M382.97 258.94C392.44 263.43 402.21 268.51 412.22 273.86 422.35 278.55 432.88 283.33 443.8 288.08 454.99 292.01 466.7 296 478.76 300.08 491 303.52 503.38 307.29 515.42 311.46 526.93 315.27 537.34 319.71 545.91 324.83 552.78 329.8 556.96 335.58 557.97 342.16 556.81 348.7 552.64 356.08 545.88 364.26 538.5 372.42 530.2 381.39 522.05 391.13 516.15 400.87 512.22 410.95 510.43 421.27 511.46 431.64 513.92 442.28 517.07 453.09 521.32 463.97 524.78 475.02 526.84 486.03 528.23 497.03 527.47 507.85 524.55 518.19 520.46 528.18 514.39 537.36 506.74 545.31 498.31 552.42 488.79 557.89 478.65 561.38 468.21 563.63 457.5 563.69 446.82 561.48 436.11 558.19 425.56 552.95 415.32 546 405.09 538.88 395.61 531.16 386.86 523.33 378.01 516.35 369.73 509.71 361.93 503.57 353.82 498.63 345.96 494.11 338.24 489.93 329.99 486.66 321.65 483.35 313.2 479.8 304.17 476.71 295.04 473.02 286.03 468.6 276.86 464.28 268.23 459.04 260.58 452.86 253.65 446.64 248.35 439.43 245.11 431.29 243.3 423.1 243.82 414.01 246.71 404.08 250.71 394.15 256.27 383.88 262.78 373.44 269.08 363.03 275.57 352.48 281.89 341.97 287.16 331.52 292.08 321.17 296.69 311.12 300.27 301.27 303.85 291.87 307.62 283.18 310.86 274.91 314.69 267.57 319.24 261.42 323.67 255.94 329.01 251.86 335.26 249.35 341.54 247.61 348.73 247.47 356.72 248.96 364.73 250.96 373.5 254.33 382.97 258.94" stroke-dasharray="3 2" transform="rotate(62.15384615384616, 400, 400)" opacity="0.63"></path><path d="M390.72 271.98C399.5 276.19 408.72 280.94 418.29 286.01 427.94 290.56 438.04 295.26 448.47 299.99 459.02 304.06 469.9 308.21 480.86 312.46 491.74 316.13 502.41 320.07 512.43 324.32 521.74 328.21 529.78 332.59 535.98 337.51 540.71 342.26 543.07 347.67 542.8 353.76 540.94 359.78 536.71 366.54 530.48 374.03 523.95 381.5 516.71 389.71 509.54 398.67 504.19 407.63 500.31 416.93 498.08 426.45 498.16 436 499.43 445.79 501.4 455.68 504.53 465.59 507.28 475.55 509.15 485.38 510.83 495.1 510.94 504.52 509.37 513.36 507.03 521.83 502.99 529.44 497.46 535.87 491.29 541.55 483.96 545.76 475.79 548.22 467.31 549.71 458.31 549.34 449.03 547.05 439.7 543.95 430.24 539.19 420.82 532.95 411.4 526.58 402.44 519.61 393.95 512.43 385.37 505.89 377.12 499.49 369.15 493.42 360.94 488.26 352.83 483.4 344.76 478.8 336.31 474.98 327.79 471.16 319.24 467.21 310.35 463.72 301.53 459.81 293 455.37 284.54 451.11 276.75 446.13 270.01 440.4 264.03 434.69 259.58 428.16 257.02 420.82 255.69 413.46 256.42 405.3 259.23 396.37 263 387.45 268.18 378.21 274.3 368.83 280.33 359.48 286.67 350.03 292.99 340.64 298.51 331.35 303.8 322.2 308.84 313.41 312.99 304.83 317.06 296.74 321.2 289.35 324.75 282.37 328.66 276.27 333.07 271.28 339.67 265.26 356.46 260.79 366.83 262.5 373.98 264.5 381.95 267.69 390.72 271.98" stroke-dasharray="2 4" transform="rotate(66.03846153846153, 400, 400)" opacity="0.67"></path><path d="M400.19 285.03C408.27 288.92 416.79 293.33 425.66 298.07 434.56 302.41 443.81 306.96 453.26 311.59 462.71 315.71 472.26 319.93 481.66 324.26 490.8 328.11 499.49 332.18 507.33 336.5 517.35 342.67 527.8 356.84 527.11 365.12 524.85 370.73 520.77 376.98 515.17 383.84 509.5 390.68 503.26 398.18 497.02 406.34 492.23 414.49 488.49 422.93 485.96 431.55 485.27 440.17 485.53 448.96 486.42 457.76 488.41 466.54 490.29 475.27 491.66 483.77 493.17 492.11 493.6 500.07 492.79 507.41 491.58 514.38 488.99 520.51 485.11 525.54 480.79 529.96 475.33 533.07 468.95 534.69 462.32 535.55 454.99 534.87 447.16 532.59 439.25 529.71 430.98 525.44 422.47 519.9 413.96 514.26 405.62 508.03 397.48 501.55 389.3 495.51 381.23 489.47 373.28 483.59 365.17 478.41 357.05 473.39 348.96 468.55 340.64 464.34 332.29 460.14 324.01 455.88 315.61 452.02 307.41 447.89 299.64 443.39 292.1 439.09 285.3 434.26 279.57 428.87 274.56 423.53 270.96 417.54 269.04 410.9 268.15 404.26 269.05 396.95 271.75 389.01 275.26 381.07 280.03 372.88 285.68 364.61 291.36 356.37 297.42 348.09 303.59 339.92 309.2 331.85 314.71 323.98 320.05 316.5 324.67 309.22 329.21 302.43 333.75 296.34 339.82 288.14 353 277.09 360.67 274.72 365.84 274.01 371.7 274.47 378.28 276.14 384.81 278.09 392.11 281.07 400.19 285.03" stroke-dasharray="1 3" transform="rotate(69.92307692307692, 400, 400)" opacity="0.71"></path><path d="M409.62 298.08C416.96 301.62 424.64 305.66 432.53 310.03 440.43 314.11 448.53 318.42 456.64 322.87 464.67 326.93 472.59 331.13 480.16 335.44 487.42 339.38 494.07 343.51 499.81 347.84 506.86 354.06 512.75 367.88 511.03 375.71 508.63 380.98 504.87 386.76 499.97 393.04 495.14 399.29 489.85 406.08 484.5 413.41 480.26 420.73 476.74 428.25 474.06 435.87 472.8 443.47 472.23 451.15 472.18 458.76 473.11 466.32 474.07 473.74 474.76 480.85 475.94 491.06 474.03 508.17 470.42 514.36 465.41 518.76 450.51 520.74 441.1 518.11 434.56 515.48 427.49 511.7 419.97 506.85 412.44 501.92 404.85 496.44 397.26 490.66 389.66 485.18 382.01 479.6 374.37 474.06 366.65 469.01 358.88 464.03 351.13 459.14 343.31 454.73 335.51 450.32 327.87 445.86 320.28 441.76 312.99 437.46 306.2 432.93 299.74 428.59 294.03 423.88 289.34 418.76 285.3 413.72 282.52 408.2 281.18 402.19 280.69 396.19 281.71 389.68 284.26 382.69 287.48 375.7 291.81 368.57 296.95 361.42 302.17 354.3 307.84 347.21 313.71 340.29 319.22 333.46 324.76 326.88 330.21 320.68 335.14 314.68 340.03 309.16 344.88 304.29 351.53 297.77 365.28 289.4 372.83 287.88 377.85 287.54 383.4 288.19 389.51 289.86 395.57 291.72 402.27 294.48 409.62 298.08" stroke-dasharray="0 2" transform="rotate(73.8076923076923, 400, 400)" opacity="0.74"></path><path d="M417.27 311.13C423.81 314.31 430.51 317.94 437.25 321.9 443.99 325.65 450.72 329.65 457.31 333.83 470.14 341.29 481.54 349.49 489.82 358.19 496.14 366.03 497.99 374.97 494.7 385.06 492.39 390 489.07 395.31 484.92 401 480.9 406.66 476.5 412.73 471.99 419.2 468.3 425.66 465.06 432.21 462.36 438.77 460.71 445.31 459.53 451.83 458.73 458.2 459.47 470.77 459.82 482.32 458.42 491.7 455.07 502.68 439.15 506.15 431.54 503.61 426.2 501.27 420.25 497.99 413.77 493.8 407.28 489.56 400.57 484.81 393.75 479.76 386.93 474.9 379.98 469.86 372.98 464.77 358.96 455.65 344.75 446.38 331.31 437.19 318.43 429.05 307.28 420.19 299.41 410.48 295.3 403.18 293.86 386.97 296.78 378.02 299.68 371.94 303.53 365.84 308.1 359.79 312.8 353.77 317.96 347.86 323.38 342.15 333.54 330.97 344.02 321.02 354.34 313.27 363.3 306.37 372.78 302.17 383.05 301.34 388 301.29 393.3 302.06 398.99 303.67 404.63 305.41 410.73 307.9 417.27 311.13" stroke-dasharray="3 3" transform="rotate(77.6923076923077, 400, 400)" opacity="0.78"></path><path d="M421.73 324.18C433.05 329.68 444.23 336.68 454.44 344.46 464.25 351.48 472.3 359.25 477.5 367.48 481.38 375.09 481.72 383.56 478.26 392.81 474.06 401.84 467.41 412.02 459.47 423.16 453.9 434.3 449.38 445.39 446.07 455.75 445.21 465.89 444.19 474.89 442.14 481.87 440.65 488.09 436.97 491.73 430.86 492.15 424.61 491.53 415.92 487.71 405.02 480.76 394.12 473.62 382.21 464.93 370.07 455.69 358.05 447.29 345.99 438.55 334.86 429.78 324.43 421.76 315.71 413.23 309.89 404.24 305.85 395.47 305.47 385.8 309.29 375.43 314.73 365.06 322.96 354.98 332.65 345.79 342.02 336.82 352 329.11 361.99 323.35 371.12 318.16 380.61 315.26 390.47 315.09 399.95 315.51 410.4 318.53 421.73 324.18" stroke-dasharray="4 4" transform="rotate(81.57692307692308, 400, 400)" opacity="0.82"></path><path d="M422.17 337.23C431.61 341.94 440.33 347.98 447.78 354.78 454.92 361.12 460.28 368.19 463.25 375.67 465.46 382.75 465.01 390.49 461.85 398.72 458.47 406.8 453.27 415.61 446.96 424.92 442.24 434.23 437.9 443.16 434.19 451.21 431.11 462.47 423.45 476.43 416.48 477.47 411.3 476.68 404.22 473.43 395.35 467.71 386.47 461.86 376.75 454.61 366.89 446.74 357.2 439.36 347.66 431.5 339.08 423.53 331.16 416.04 324.8 408.18 320.84 400.11 318.17 392.21 318.36 383.82 321.81 375.18 326.42 366.54 333.34 358.46 341.57 351.35 349.8 344.38 358.77 338.61 367.91 334.51 376.59 330.75 385.57 328.86 394.61 329.13 403.45 329.73 412.72 332.41 422.17 337.23" stroke-dasharray="2 2" transform="rotate(85.46153846153847, 400, 400)" opacity="0.85"></path><path d="M418.51 350.27C426 354.14 432.48 359.14 437.64 364.81 442.63 370.23 446.04 376.32 447.6 382.77 448.82 388.99 448.14 395.7 445.6 402.68 443.1 409.57 439.26 416.87 434.44 424.32 430.63 431.75 426.74 438.62 423.04 444.59 419.01 452.85 410.01 462.35 403.68 462.61 399.21 461.82 393.48 459.18 386.53 454.66 379.59 450.06 372.14 444.28 364.73 437.9 357.49 431.75 350.53 425.09 344.5 418.28 338.96 411.72 334.71 404.88 332.32 397.99 330.78 391.21 331.35 384.22 334.32 377.29 338.07 370.35 343.61 364.11 350.25 358.83 357.02 353.61 364.55 349.46 372.31 346.67 379.93 344.06 387.78 342.91 395.56 343.41 403.25 344.08 411.01 346.34 418.51 350.27" stroke-dasharray="4 1" transform="rotate(89.34615384615384, 400, 400)" opacity="0.89"></path><path d="M411.43 363.32C422.49 369.18 429.43 378.5 431.21 388.85 432.61 398.81 429.24 410.28 421.93 421.4 416.79 432.51 410.44 441.07 403.75 445.42 398.34 449.2 390.46 448.2 380.21 441.61 369.95 434.85 359.38 424.64 351.54 413.79 344.87 403.41 342.58 392.02 346.84 381.55 352.9 371.08 363.65 363.4 375.61 359.74 387.56 356.36 400.36 357.31 411.43 363.32" stroke-dasharray="3 3" transform="rotate(93.23076923076924, 400, 400)" opacity="0.93"></path><path d="M402.23 376.37C409.45 380.4 413.73 386.85 414.77 394.04 415.82 401.11 413.96 409.09 409.41 416.44 403.29 426.44 387.39 433.33 377.54 428.56 370.74 424.13 364.56 417.27 360.49 409.84 356.92 402.56 356.17 394.61 359.35 387.57 363.37 380.53 370.4 375.65 378.31 373.53 386.37 371.48 395.02 372.27 402.23 376.37" stroke-dasharray="1 5" transform="rotate(97.11538461538461, 400, 400)" opacity="0.96"></path></g></svg>